<?xml version="1.0" encoding="UTF-8"?>
<svg version="1.1" xmlns="http://www.w3.org/2000/svg" width="672" height="90">
<path d="M0 0 C221.76 0 443.52 0 672 0 C672 29.7 672 59.4 672 90 C450.24 90 228.48 90 0 90 C0 60.3 0 30.6 0 0 Z " fill="#040428" transform="translate(0,0)"/>
<path d="M0 0 C5.20539726 2.89279534 8.05287324 5.99494332 11 11.1875 C12.98643142 18.95264099 11.69468811 25.95349326 7.6875 32.875 C3.47948108 37.81662029 -1.13565421 40.42421057 -7.62890625 41.125 C-13.68225868 41.4207363 -18.44022575 40.61807764 -23.3125 36.875 C-27.87934065 32.10518866 -31.14722425 27.10605924 -31.41015625 20.375 C-31.16024897 13.1776703 -29.12579061 8.23424256 -24.3125 2.875 C-17.18141762 -3.31327101 -8.408537 -3.92734064 0 0 Z " fill="#FCA71E" transform="translate(57.3125,22.125)"/>
<path d="M0 0 C0.98871094 0.35578125 1.97742187 0.7115625 2.99609375 1.078125 C7.60207833 3.10891767 10.31120799 4.59854695 12.578125 9.2109375 C15 16.93705986 15 16.93705986 15 21 C15.66 21 16.32 21 17 21 C17 22.32 17 23.64 17 25 C17.99 25 18.98 25 20 25 C20 25.66 20 26.32 20 27 C19.01 27 18.02 27 17 27 C16.90525391 28.03447266 16.90525391 28.03447266 16.80859375 29.08984375 C15.63392678 38.10386715 12.50822689 43.49360131 5.328125 49.078125 C-1.85366056 53.75198545 -8.43455596 55.40909583 -17 55 C-17.66 54.67 -18.32 54.34 -19 54 C-20.53668865 53.77532169 -22.07968054 53.59203195 -23.625 53.4375 C-24.44226563 53.35371094 -25.25953125 53.26992187 -26.1015625 53.18359375 C-27.04128906 53.09271484 -27.04128906 53.09271484 -28 53 C-28 52.34 -28 51.68 -28 51 C-28.78375 50.938125 -29.5675 50.87625 -30.375 50.8125 C-31.24125 50.544375 -32.1075 50.27625 -33 50 C-33.66666667 48.33333333 -34.33333333 46.66666667 -35 45 C-37.54775306 44.10613836 -37.54775306 44.10613836 -40 44 C-40 41.36 -40 38.72 -40 36 C-40.99 36 -41.98 36 -43 36 C-44.21364989 26.17877166 -45.27756007 17.09793453 -39.40234375 8.6171875 C-37.55228684 6.48369568 -35.49660139 5.28203855 -33 4 C-32.34 3.01 -31.68 2.02 -31 1 C-21.31022972 -5.36756333 -10.37313058 -3.79326857 0 0 Z M-29 11 C-33.12026411 16.60813726 -34.4209297 22.03018736 -34 29 C-32.11962009 35.80718537 -28.56710031 41.73152633 -22.375 45.3125 C-16.79710062 47.84790881 -11.40755601 47.96276979 -5.5390625 46.3046875 C0.33586029 43.9820436 3.98791028 40.85311109 6.96484375 35.15234375 C9.40952083 29.48564988 10.11624739 23.84017185 8.37890625 17.86328125 C5.58769765 11.35046119 0.58510927 8.07558958 -5.375 4.625 C-14.70330355 2.40397534 -22.01341477 4.38112978 -29 11 Z " fill="#683222" transform="translate(60,16)"/>
<path d="M0 0 C3 1.375 3 1.375 5 3 C5 3.66 5 4.32 5 5 C5.639375 5.12375 6.27875 5.2475 6.9375 5.375 C7.9584375 5.684375 7.9584375 5.684375 9 6 C9.33 6.66 9.66 7.32 10 8 C11.485 8.495 11.485 8.495 13 9 C13.75 11.75 13.75 11.75 14 15 C12.125 17.125 12.125 17.125 10 19 C9.2127322 21.1381966 9.2127322 21.1381966 9 23 C9.66 23 10.32 23 11 23 C10.6875 24.9375 10.6875 24.9375 10 27 C9.01 27.33 8.02 27.66 7 28 C6.67 28.99 6.34 29.98 6 31 C5.34 31 4.68 31 4 31 C3.566875 31.928125 3.566875 31.928125 3.125 32.875 C2 35 2 35 0 37 C-2.69471291 37.25217118 -5.24215124 37.37025884 -7.9375 37.375 C-9.03094727 37.41173828 -9.03094727 37.41173828 -10.14648438 37.44921875 C-15.49262166 37.47862005 -15.49262166 37.47862005 -17.9296875 35.1796875 C-21.4769841 27.95563092 -22.06075832 20.92663808 -19.75 13.3125 C-16.31029527 4.0012993 -9.96219195 -1.10691022 0 0 Z " fill="#E5A05F" transform="translate(406,20)"/>
<path d="M0 0 C8.22330035 0.18985975 14.66376675 2.40449388 20.4375 8.3125 C25.46166814 15.47838084 26.53897402 22.7019387 25.4375 31.3125 C22.87849927 37.93848403 18.81650177 43.10196944 12.4375 46.3125 C6.22239149 48.72948664 0.05670158 49.61396074 -6.2890625 47.33203125 C-13.80249664 43.81349221 -13.80249664 43.81349221 -15.5625 39.3125 C-14.00789063 39.29123047 -14.00789063 39.29123047 -12.421875 39.26953125 C-11.05203943 39.22261907 -9.68224913 39.17437173 -8.3125 39.125 C-7.28962891 39.11629883 -7.28962891 39.11629883 -6.24609375 39.10742188 C-2.50425858 38.94394364 -0.90702858 38.67234096 1.72265625 35.92578125 C2.28855469 35.06339844 2.85445313 34.20101562 3.4375 33.3125 C5.10546875 31.8359375 5.10546875 31.8359375 6.625 30.6875 C9.64616608 28.55449897 9.64616608 28.55449897 10.4375 25.3125 C9.7775 25.3125 9.1175 25.3125 8.4375 25.3125 C8.98473683 21.93787285 9.4924 20.23015 11.4375 17.3125 C12.0975 17.3125 12.7575 17.3125 13.4375 17.3125 C13.1075 15.3325 12.7775 13.3525 12.4375 11.3125 C11.1175 10.9825 9.7975 10.6525 8.4375 10.3125 C8.4375 9.6525 8.4375 8.9925 8.4375 8.3125 C7.839375 8.209375 7.24125 8.10625 6.625 8 C4.4375 7.3125 4.4375 7.3125 3.1875 5.875 C0.36703427 3.35672702 -2.9024052 3.0925202 -6.5625 2.3125 C-4.1125632 -0.1374368 -3.3720533 0.01583124 0 0 Z " fill="#3E232E" transform="translate(406.5625,17.6875)"/>
<path d="M0 0 C4.41026006 2.45014448 7.08812558 5.30125117 9.375 9.875 C9.91860446 14.82982094 9.93937074 18.74625852 7.6875 23.25 C4.52245126 26.84275803 1.16298338 30.56912413 -3.796875 31.11328125 C-9.6039827 31.28045556 -13.1762154 31.00601427 -17.625 26.875 C-21.34297028 21.98293385 -22.22880455 18.29604214 -21.94140625 12.16796875 C-21.11687234 6.19264277 -17.1451294 3.33722678 -12.625 -0.125 C-8.45347654 -2.21076173 -4.30096864 -1.33478337 0 0 Z " fill="#143770" transform="translate(265.625,27.125)"/>
<path d="M0 0 C2.5625 1.875 2.5625 1.875 4 4 C4 4.66 4 5.32 4 6 C4.99 6 5.98 6 7 6 C7.65247627 9.68875197 8.12678646 13.24923378 8 17 C5.5232485 20.46745209 2.93267715 22.3977982 -1 24 C0.32 24.66 1.64 25.32 3 26 C3.3125 28.25 3.3125 28.25 3 31 C-0.37708094 34.19933984 -2.72446971 35.90551628 -7.375 36.25 C-11.10569574 35.99271064 -12.44866132 35.65339223 -15 33 C-15 32.34 -15 31.68 -15 31 C-15.66 31 -16.32 31 -17 31 C-17 30.01 -17 29.02 -17 28 C-13.7 27.34 -10.4 26.68 -7 26 C-10.96 26.33 -14.92 26.66 -19 27 C-20.83541691 21.49374927 -21.14412545 15.0625082 -19.09375 9.57421875 C-14.70817314 2.11030428 -8.73227851 -1.69011842 0 0 Z " fill="#D79F68" transform="translate(497,25)"/>
<path d="M0 0 C3.5 1.75 3.5 1.75 5.12890625 2.84375 C8.80891945 5.11782914 12.96570437 6.47394853 17 8 C17 8.99 17 9.98 17 11 C17.99 11.33 18.98 11.66 20 12 C20.66 15.3 21.32 18.6 22 22 C22.99 22 23.98 22 25 22 C25.495 25.96 25.495 25.96 26 30 C26.99 29.67 27.98 29.34 29 29 C29.25028811 30.58013217 29.47440946 32.16442306 29.6875 33.75 C29.81511719 34.63171875 29.94273438 35.5134375 30.07421875 36.421875 C29.98192366 39.62791491 28.92607365 40.5079936 27 43 C26.66279217 44.99935039 26.32960374 46.99938197 26 49 C22.55133574 55.46749501 17.38551671 62.21877246 11 66 C9.33371391 66.03561528 7.66624869 66.03732397 6 66 C4.5459375 66.99 4.5459375 66.99 3.0625 68 C-0.42619248 70.27832978 -1.924344 70.52029651 -6 70 C-8.6875 69.0625 -8.6875 69.0625 -11 68 C-12.485 67.505 -12.485 67.505 -14 67 C-14 66.01 -14 65.02 -14 64 C-13.2265625 64.02320312 -12.453125 64.04640625 -11.65625 64.0703125 C-2.24411944 64.23339397 4.44837691 63.45988365 12.3359375 58.0234375 C14 57 14 57 16 57 C16.2475 56.443125 16.495 55.88625 16.75 55.3125 C18 53 18 53 20 50.8125 C22.32852398 47.53801316 22.90425023 44.8875805 23.60546875 40.98828125 C24 39 24 39 25 37 C25.99 37 26.98 37 28 37 C28 36.34 28 35.68 28 35 C27.01 35 26.02 35 25 35 C25 33.68 25 32.36 25 31 C24.34 31 23.68 31 23 31 C22.70867187 29.95199219 22.41734375 28.90398438 22.1171875 27.82421875 C21.70434425 26.44494697 21.29021368 25.06606005 20.875 23.6875 C20.68679687 22.99720703 20.49859375 22.30691406 20.3046875 21.59570312 C19.14463219 17.84364925 18.36735903 16.23025624 14.99609375 14.1171875 C14.00738281 13.74851562 13.01867187 13.37984375 12 13 C11.071875 12.484375 10.14375 11.96875 9.1875 11.4375 C1.30644156 7.88329717 -8.22101284 6.25685826 -16.62890625 8.79296875 C-20.59401309 10.45411303 -22.56246104 11.34369156 -25 15 C-26.175625 15.61875 -26.175625 15.61875 -27.375 16.25 C-30.95947613 18.63965076 -32.7402361 20.94356024 -34 25 C-34.74536649 30.29977495 -34.87169507 35.65609985 -35 41 C-35.66 41 -36.32 41 -37 41 C-37.33951619 39.43883181 -37.67132544 37.87598662 -38 36.3125 C-38.185625 35.44238281 -38.37125 34.57226562 -38.5625 33.67578125 C-39.64119913 27.07838035 -39.64119913 27.07838035 -37.625 23.6875 C-37.08875 23.130625 -36.5525 22.57375 -36 22 C-35.34 22 -34.68 22 -34 22 C-33.5978125 20.4221875 -33.5978125 20.4221875 -33.1875 18.8125 C-30.89486394 11.45193158 -27.58711208 8.69520922 -21 5 C-20.38125 4.855625 -19.7625 4.71125 -19.125 4.5625 C-16.70250443 4.04212082 -16.70250443 4.04212082 -13.875 1.9375 C-9.39004538 -0.68995195 -5.06903854 -0.82289587 0 0 Z M-36 18 C-35.01 18.495 -35.01 18.495 -34 19 C-34.99 19.495 -34.99 19.495 -36 20 C-36 19.34 -36 18.68 -36 18 Z " fill="#452123" transform="translate(52,6)"/>
<path d="M0 0 C2.25 1.625 2.25 1.625 3.25 3.625 C5.27463255 4.27713292 5.27463255 4.27713292 7.25 4.625 C7.89730804 7.18713554 8.54289288 9.74968485 9.1875 12.3125 C9.36990234 13.03373047 9.55230469 13.75496094 9.74023438 14.49804688 C10.25261076 16.53823649 10.75256973 18.58112425 11.25 20.625 C11.46914062 21.49640625 11.68828125 22.3678125 11.9140625 23.265625 C12.60735294 28.13478109 11.73127609 32.96956085 10.25 37.625 C7.1875 40.1875 7.1875 40.1875 4.25 41.625 C3.92 42.615 3.59 43.605 3.25 44.625 C0.57080574 45.77982511 -1.9863394 46.73685772 -4.75 47.625 C-5.884375 48.0375 -7.01875 48.45 -8.1875 48.875 C-16.45126048 50.61473905 -23.2283266 48.00111645 -30.75 44.625 C-30.75 43.305 -30.75 41.985 -30.75 40.625 C-32.4 40.295 -34.05 39.965 -35.75 39.625 C-38.06000075 33.27249794 -38.03264745 27.33559759 -37.75 20.625 C-37.72035156 19.903125 -37.69070312 19.18125 -37.66015625 18.4375 C-37.27968682 14.13169963 -35.87078562 12.46207783 -32.75 9.625 C-32.440625 8.779375 -32.13125 7.93375 -31.8125 7.0625 C-29.9225915 2.72682756 -25.93257515 1.58750671 -21.75 -0.0625 C-14.67610794 -2.30197337 -6.97615167 -2.55792228 0 0 Z M-29.75 9.625 C-33.87026411 15.23313726 -35.1709297 20.65518736 -34.75 27.625 C-32.86962009 34.43218537 -29.31710031 40.35652633 -23.125 43.9375 C-17.54710062 46.47290881 -12.15755601 46.58776979 -6.2890625 44.9296875 C-0.41413971 42.6070436 3.23791028 39.47811109 6.21484375 33.77734375 C8.65952083 28.11064988 9.36624739 22.46517185 7.62890625 16.48828125 C4.83769765 9.97546119 -0.16489073 6.70058958 -6.125 3.25 C-15.45330355 1.02897534 -22.76341477 3.00612978 -29.75 9.625 Z " fill="#A8541E" transform="translate(60.75,17.375)"/>
<path d="M0 0 C6.47098762 -0.59670992 10.95008294 -0.27567267 16.30859375 3.578125 C20.73264514 7.29718899 22.46254707 10.22238096 23 16 C25.52246503 14.97296178 25.52246503 14.97296178 28 13 C29.36900354 9.42003741 29.36900354 9.42003741 30 6 C32.31 6.33 34.62 6.66 37 7 C37.33 6.34 37.66 5.68 38 5 C39.32 5.33 40.64 5.66 42 6 C41.25495006 10.27713854 39.41537412 11.81150539 36.17578125 14.5078125 C33.7922823 16.14245631 31.40713976 17.18428546 28.75 18.3125 C25.12148864 19.99254605 25.12148864 19.99254605 22.8359375 23.13671875 C22.36621822 24.69814822 21.93554115 26.27191679 21.546875 27.85546875 C20.72336886 31.08478927 19.44308656 32.7497887 17 35 C11.78573243 38.07793659 7.13686421 39.73642371 1 39 C0.01 38.34 -0.98 37.68 -2 37 C-1.16855469 36.70996094 -1.16855469 36.70996094 -0.3203125 36.4140625 C0.76636719 36.02347656 0.76636719 36.02347656 1.875 35.625 C2.59429687 35.36976562 3.31359375 35.11453125 4.0546875 34.8515625 C6.18157994 34.06122217 6.18157994 34.06122217 8 32 C8.16687448 29.41645782 8.16687448 29.41645782 8 27 C7.01 26.67 6.02 26.34 5 26 C4.01 25.67 3.02 25.34 2 25 C8.75 22 8.75 22 11 22 C13.02558881 18.65060119 13.21738987 16.13037449 13.125 12.25 C13.09792969 10.77273437 13.09792969 10.77273437 13.0703125 9.265625 C13.04710937 8.51796875 13.02390625 7.7703125 13 7 C12.01 7 11.02 7 10 7 C9.34 5.35 8.68 3.7 8 2 C5.36 1.67 2.72 1.34 0 1 C0 0.67 0 0.34 0 0 Z " fill="#7A4E3D" transform="translate(491,24)"/>
<path d="M0 0 C4.17949128 2.52238829 7.09278646 5.4871567 9 10 C9.81058281 15.09509196 8.21795663 18.18708887 5.41796875 22.296875 C2.56600434 25.72237496 -0.16933483 25.90938198 -4.4375 26.375 C-8.77324712 25.91860557 -10.71260746 24.83911174 -14 22 C-16.910372 17.634442 -17.6506249 14.20499921 -17 9 C-13.37866198 2.02557123 -8.1004652 -1.91772377 0 0 Z " fill="#4686E5" transform="translate(644,29)"/>
<path d="M0 0 C3.97058723 3.3389029 5.55763254 5.54913163 6.125 10.75 C5.55847567 16.13198115 4.1263334 19.09620537 0.0625 22.6875 C-4.26482508 24.81033872 -6.46156958 24.84454782 -11.25 24.3125 C-14.27764021 23.03416302 -15.86952082 21.73233909 -18.0625 19.3125 C-19.89848337 14.67422623 -19.91558665 10.23044577 -19.25 5.3125 C-17.45805441 2.06045059 -16.12569763 0.80951757 -12.9375 -1 C-7.99733475 -2.2637632 -4.58356903 -2.37993007 0 0 Z " fill="#EFB464" transform="translate(193.25,30.6875)"/>
<path d="M0 0 C2.84624409 1.90524094 4.52979166 3.90922111 6 7 C6.86550359 11.63765674 6.55945429 15.53920269 4.875 19.9375 C1.55114421 23.59374137 -1.64072341 24.83009043 -6.5 25.4375 C-10.79719042 24.9003512 -12.76263107 23.8694861 -16 21 C-19.251842 15.54529729 -19.44773642 11.98397721 -18 6 C-16.20612128 3.05291353 -14.71873562 1.45177668 -11.8125 -0.375 C-7.64179579 -1.30182316 -4.09040761 -1.32041228 0 0 Z " fill="#A9DCE6" transform="translate(581,30)"/>
<path d="M0 0 C5.20539726 2.89279534 8.05287324 5.99494332 11 11.1875 C12.98643142 18.95264099 11.69468811 25.95349326 7.6875 32.875 C3.47948108 37.81662029 -1.13565421 40.42421057 -7.62890625 41.125 C-13.68225868 41.4207363 -18.44022575 40.61807764 -23.3125 36.875 C-27.17336876 32.84253708 -30.29190151 28.43159179 -31.3125 22.875 C-31.16744183 19.83878248 -30.80553271 16.87317189 -30.3125 13.875 C-29.9825 13.875 -29.6525 13.875 -29.3125 13.875 C-29.28671875 14.58785156 -29.2609375 15.30070312 -29.234375 16.03515625 C-28.85483742 22.44416582 -27.96348718 26.5751799 -24.3125 31.875 C-23.6525 30.555 -22.9925 29.235 -22.3125 27.875 C-20.6625 28.205 -19.0125 28.535 -17.3125 28.875 C-17.6425 30.195 -17.9725 31.515 -18.3125 32.875 C-18.9725 32.875 -19.6325 32.875 -20.3125 32.875 C-19.09265151 34.4816723 -19.09265151 34.4816723 -17.3125 35.875 C-15.18482994 36.05859099 -15.18482994 36.05859099 -12.9375 35.625 C-12.14730469 35.50769531 -11.35710938 35.39039063 -10.54296875 35.26953125 C-6.91651913 34.62892332 -6.91651913 34.62892332 -3.3125 33.875 C-3.3125 33.215 -3.3125 32.555 -3.3125 31.875 C-1.9925 32.535 -0.6725 33.195 0.6875 33.875 C0.6875 32.555 0.6875 31.235 0.6875 29.875 C2 27.625 2 27.625 3.6875 25.875 C4.6775 25.875 5.6675 25.875 6.6875 25.875 C8.15072678 22.94854643 7.57539453 20.54894481 7.3125 17.3125 C7.22226563 16.13558594 7.13203125 14.95867188 7.0390625 13.74609375 C6.99974133 10.98193401 6.99974133 10.98193401 5.6875 9.875 C5.0275 11.195 4.3675 12.515 3.6875 13.875 C1.3125 13.5625 1.3125 13.5625 -1.3125 12.875 C-3.3125 9.875 -3.3125 9.875 -3.3125 6.875 C-1.9925 6.545 -0.6725 6.215 0.6875 5.875 C0.6875 4.885 0.6875 3.895 0.6875 2.875 C-0.6325 2.545 -1.9525 2.215 -3.3125 1.875 C-3.3125 1.215 -3.3125 0.555 -3.3125 -0.125 C-10.07085073 -0.37937922 -10.07085073 -0.37937922 -15.93359375 2.27734375 C-17.15565503 4.0884179 -17.15565503 4.0884179 -18.3125 6.875 C-19.9625 6.545 -21.6125 6.215 -23.3125 5.875 C-23.93125 6.65875 -24.55 7.4425 -25.1875 8.25 C-27.3125 10.875 -27.3125 10.875 -29.3125 12.875 C-28.80520927 8.43620611 -27.37522483 6.10327752 -24.3125 2.875 C-16.52694896 -2.84499668 -8.9138662 -4.16336265 0 0 Z " fill="#FDB526" transform="translate(57.3125,22.125)"/>
<path d="M0 0 C3 1.375 3 1.375 5 3 C5 3.66 5 4.32 5 5 C5.639375 5.12375 6.27875 5.2475 6.9375 5.375 C7.9584375 5.684375 7.9584375 5.684375 9 6 C9.33 6.66 9.66 7.32 10 8 C10.99 8.33 11.98 8.66 13 9 C13.75 11.75 13.75 11.75 14 15 C12.125 17.125 12.125 17.125 10 19 C9.2127322 21.1381966 9.2127322 21.1381966 9 23 C9.66 23 10.32 23 11 23 C10.6875 24.9375 10.6875 24.9375 10 27 C9.01 27.33 8.02 27.66 7 28 C6.67 28.99 6.34 29.98 6 31 C5.34 31 4.68 31 4 31 C3.566875 31.928125 3.566875 31.928125 3.125 32.875 C2 35 2 35 0 37 C-2.69471291 37.25217118 -5.24215124 37.37025884 -7.9375 37.375 C-9.03094727 37.41173828 -9.03094727 37.41173828 -10.14648438 37.44921875 C-15.45712978 37.47842487 -15.45712978 37.47842487 -17.94140625 35.2890625 C-19.06904341 32.85070317 -19.63109903 30.65608697 -20 28 C-19.43079834 27.98541748 -18.86159668 27.97083496 -18.27514648 27.95581055 C-15.66196172 27.88070835 -13.04996901 27.78425811 -10.4375 27.6875 C-9.54224609 27.66494141 -8.64699219 27.64238281 -7.72460938 27.61914062 C-2.10922997 27.39287992 1.98660577 26.56515233 7 24 C5.68 23.67 4.36 23.34 3 23 C3 20.69 3 18.38 3 16 C4.32 15.34 5.64 14.68 7 14 C6.20700294 11.82961523 6.20700294 11.82961523 4.15234375 11.3671875 C3.42144531 11.20476563 2.69054687 11.04234375 1.9375 10.875 C0.83728516 10.62363281 0.83728516 10.62363281 -0.28515625 10.3671875 C-0.85105469 10.24601562 -1.41695313 10.12484375 -2 10 C-0.68 9.01 0.64 8.02 2 7 C-1.60993172 5.86519473 -4.9842327 5.89984233 -8.75 5.9375 C-10.50570313 5.95103516 -10.50570313 5.95103516 -12.296875 5.96484375 C-13.18890625 5.97644531 -14.0809375 5.98804688 -15 6 C-10.00236772 0.87085108 -7.27334515 -0.80660424 0 0 Z " fill="#A76E4E" transform="translate(406,20)"/>
<path d="M0 0 C2.31362467 1.67765201 2.92775078 2.62189575 3.46875 5.453125 C3.5461547 12.38084541 2.70935952 15.85256052 -2 21 C-5.4352048 23.29013653 -6.985331 23.17842973 -11 23 C-14.1793139 18.13167558 -15.87166273 14.99268129 -15 9 C-11.62251517 2.49521441 -7.53327593 -0.98260121 0 0 Z " fill="#C24C3F" transform="translate(333,29)"/>
<path d="M0 0 C0 0.33 0 0.66 0 1 C-1.7015625 1.12375 -1.7015625 1.12375 -3.4375 1.25 C-8.468967 1.90666412 -12.58344357 3.53440937 -17 6 C-17.75152344 6.40347656 -18.50304688 6.80695312 -19.27734375 7.22265625 C-23.23886315 9.90903921 -24.74515656 12.08902979 -26.046875 16.7421875 C-27.69338011 26.30759815 -26.74341187 34.69304898 -24 44 C-22.35 44.33 -20.7 44.66 -19 45 C-19 46.32 -19 47.64 -19 49 C-18.278125 49.04125 -17.55625 49.0825 -16.8125 49.125 C-12.76725183 50.38352165 -11.50518743 52.63589117 -9 56 C-11.64 56 -14.28 56 -17 56 C-17 55.34 -17 54.68 -17 54 C-17.78375 53.938125 -18.5675 53.87625 -19.375 53.8125 C-20.24125 53.544375 -21.1075 53.27625 -22 53 C-22.66666667 51.33333333 -23.33333333 49.66666667 -24 48 C-26.54775306 47.10613836 -26.54775306 47.10613836 -29 47 C-29 44.36 -29 41.72 -29 39 C-29.99 39 -30.98 39 -32 39 C-33.21364989 29.17877166 -34.27756007 20.09793453 -28.40234375 11.6171875 C-26.55228684 9.48369568 -24.49660139 8.28203855 -22 7 C-21.34 6.01 -20.68 5.02 -20 4 C-13.63953664 -0.17973307 -7.41259767 -0.49879162 0 0 Z " fill="#6C3621" transform="translate(49,13)"/>
<path d="M0 0 C4.86884221 0.11241194 7.45031291 1.21753078 10.8359375 4.69140625 C11.56683594 5.58666016 11.56683594 5.58666016 12.3125 6.5 C12.75851562 7.04527344 13.20453125 7.59054688 13.6640625 8.15234375 C17.75708186 14.51462214 16.47885725 22.37043596 15.3125 29.5 C13.86422414 33.22413793 13.86422414 33.22413793 11.3125 34.5 C11.085625 35.16 10.85875 35.82 10.625 36.5 C10.191875 37.16 9.75875 37.82 9.3125 38.5 C5.6875 39.25 5.6875 39.25 2.3125 39.5 C2.3125 40.16 2.3125 40.82 2.3125 41.5 C-3.25905419 43.73620202 -7.70155521 45.33243208 -13.6875 43.5 C-14.87890625 41.44140625 -14.87890625 41.44140625 -15.6875 39.5 C-14.13289063 39.47873047 -14.13289063 39.47873047 -12.546875 39.45703125 C-11.17703943 39.41011907 -9.80724913 39.36187173 -8.4375 39.3125 C-7.41462891 39.30379883 -7.41462891 39.30379883 -6.37109375 39.29492188 C-2.62925858 39.13144364 -1.03202858 38.85984096 1.59765625 36.11328125 C2.16355469 35.25089844 2.72945313 34.38851562 3.3125 33.5 C4.98046875 32.0234375 4.98046875 32.0234375 6.5 30.875 C9.52116608 28.74199897 9.52116608 28.74199897 10.3125 25.5 C9.6525 25.5 8.9925 25.5 8.3125 25.5 C8.85973683 22.12537285 9.3674 20.41765 11.3125 17.5 C11.9725 17.5 12.6325 17.5 13.3125 17.5 C12.9825 15.52 12.6525 13.54 12.3125 11.5 C10.9925 11.17 9.6725 10.84 8.3125 10.5 C8.3125 9.84 8.3125 9.18 8.3125 8.5 C7.714375 8.396875 7.11625 8.29375 6.5 8.1875 C4.3125 7.5 4.3125 7.5 3.0625 6.0625 C0.24203427 3.54422702 -3.0274052 3.2800202 -6.6875 2.5 C-4.24816895 0.06066895 -3.37160972 0.12391827 0 0 Z " fill="#89533D" transform="translate(406.6875,17.5)"/>
<path d="M0 0 C3.85773071 0.38360174 5.42988306 1.79459431 7.9375 4.75 C10.0756966 5.5372678 10.0756966 5.5372678 11.9375 5.75 C11.6075 7.07 11.2775 8.39 10.9375 9.75 C10.2775 9.75 9.6175 9.75 8.9375 9.75 C8.9375 10.41 8.9375 11.07 8.9375 11.75 C9.5975 12.08 10.2575 12.41 10.9375 12.75 C10.9375 13.74 10.9375 14.73 10.9375 15.75 C9.2875 16.08 7.6375 16.41 5.9375 16.75 C5.6075 17.74 5.2775 18.73 4.9375 19.75 C0.3175 19.75 -4.3025 19.75 -9.0625 19.75 C-9.48517465 12.98720553 -9.76087028 7.80639267 -5.69140625 2.16015625 C-3.72040174 0.45384299 -2.5866318 0.1498796 0 0 Z " fill="#F7C27B" transform="translate(486.0625,28.25)"/>
<path d="M0 0 C0.33 0 0.66 0 1 0 C1.495 6.93 1.495 6.93 2 14 C4.0728125 13.505 4.0728125 13.505 6.1875 13 C9.5311614 12.25110423 12.55623067 11.77782133 16 12 C13.50494038 14.49505962 12.32671112 14.35948376 8.875 14.625 C7.96492188 14.69976562 7.05484375 14.77453125 6.1171875 14.8515625 C5.41851562 14.90054688 4.71984375 14.94953125 4 15 C4 15.99 4 16.98 4 18 C4.66 18.33 5.32 18.66 6 19 C-9.18789144 21.92275574 -9.18789144 21.92275574 -16 21 C-16.66 20.34 -17.32 19.68 -18 19 C-17.71131437 15.38772858 -16.10903013 13.80033906 -13.4375 11.5 C-10.61090358 9.10708715 -7.92735504 7.34915763 -4.5625 5.8125 C-0.88378414 4.46154816 -0.88378414 4.46154816 -0.27734375 1.88671875 C-0.18582031 1.26410156 -0.09429687 0.64148437 0 0 Z " fill="#68483B" transform="translate(476,38)"/>
<path d="M0 0 C6.79205607 -0.71495327 6.79205607 -0.71495327 10.01953125 1.1953125 C14.02098363 4.54810839 16.59755616 7.47035298 17.4375 12.75 C16.82365691 17.30997724 14.92614086 20.48540657 12 24 C8.16491113 26.42216139 4.46207318 26.46969191 0 26 C-3.90612165 23.93638856 -6.48603365 22.23910579 -8 18 C-7.2575 18.33 -6.515 18.66 -5.75 19 C-2.86116688 20.22782871 -2.86116688 20.22782871 1 20 C1.33 19.01 1.66 18.02 2 17 C3.65 16.67 5.3 16.34 7 16 C9.55579195 10.46245077 8.62077189 6.61036424 7 1 C4.69 1 2.38 1 0 1 C0 0.67 0 0.34 0 0 Z " fill="#18388A" transform="translate(636,29)"/>
<path d="M0 0 C0.33 0.66 0.66 1.32 1 2 C3.09341518 2.4290258 3.09341518 2.4290258 5.5 2.5625 C9.90394511 2.90394511 9.90394511 2.90394511 11 4 C11.42364516 7.37705711 11.51522295 10.63166069 11 14 C8.5625 15.875 8.5625 15.875 6 17 C5.3574765 19.06874034 5.3574765 19.06874034 5 21 C4.01 21.33 3.02 21.66 2 22 C1.67 20.35 1.34 18.7 1 17 C-1.31 16.67 -3.62 16.34 -6 16 C-6.05447047 14.58376784 -6.09300508 13.16691809 -6.125 11.75 C-6.14820313 10.96109375 -6.17140625 10.1721875 -6.1953125 9.359375 C-5.97899092 6.74621028 -5.37615982 5.21714637 -4 3 C-1.875 1.25 -1.875 1.25 0 0 Z " fill="#FDBF30" transform="translate(44,32)"/>
<path d="M0 0 C3.97852782 -0.06188821 7.53875097 0.03764205 10.93359375 2.2734375 C14.22667115 5.63758852 15.39352839 8.41491628 15.5625 13.125 C15.28830032 17.14050196 14.7808429 19.94107281 12 23 C7.62423085 25.88402967 4.19900136 26.64987517 -1 26 C-4.4375 24.0625 -4.4375 24.0625 -7 22 C-7 21.67 -7 21.34 -7 21 C-6.30132813 20.93941406 -5.60265625 20.87882812 -4.8828125 20.81640625 C-3.97273437 20.73261719 -3.06265625 20.64882813 -2.125 20.5625 C-1.22007812 20.48128906 -0.31515625 20.40007813 0.6171875 20.31640625 C3.01110861 20.13010715 3.01110861 20.13010715 5 19 C5.46806645 16.66255706 5.82669794 14.30260921 6.125 11.9375 C6.37636719 10.00197266 6.37636719 10.00197266 6.6328125 8.02734375 C6.75398437 7.02832031 6.87515625 6.02929688 7 5 C5.68 4.67 4.36 4.34 3 4 C3 3.01 3 2.02 3 1 C2.01 0.67 1.02 0.34 0 0 Z " fill="#396B92" transform="translate(572,29)"/>
<path d="M0 0 C4.96429611 1.24107403 7.13871828 2.76106412 10 7 C11.53597454 10.07194908 11.2265038 12.60244293 11 16 C9.18686184 21.13722479 6.89270769 23.59980377 2 26 C-2.07363313 26.71088892 -5.25373138 26.37313431 -9 24.5 C-9.66 24.005 -10.32 23.51 -11 23 C-10.484375 22.7525 -9.96875 22.505 -9.4375 22.25 C-7.3776807 21.19368241 -5.42279885 20.06113194 -3.4375 18.875 C0 17 0 17 3 17 C3.33 12.38 3.66 7.76 4 3 C3.01 3 2.02 3 1 3 C0.67 2.01 0.34 1.02 0 0 Z " fill="#784835" transform="translate(188,29)"/>
<path d="M0 0 C3.98566544 2.10354565 6.53073752 4.20791833 9 8 C9.75 11.3125 9.75 11.3125 10 14 C12.52246503 12.97296178 12.52246503 12.97296178 15 11 C16.36900354 7.42003741 16.36900354 7.42003741 17 4 C19.31 4.33 21.62 4.66 24 5 C24.33 4.34 24.66 3.68 25 3 C26.32 3.33 27.64 3.66 29 4 C28.13988541 9.05181226 25.0208772 11.14104929 21 14 C18.37680462 15.48982874 15.74969821 16.74575169 13 18 C12.67 17.34 12.34 16.68 12 16 C9.36 16.66 6.72 17.32 4 18 C3.87882812 17.03578125 3.75765625 16.0715625 3.6328125 15.078125 C3.46523438 13.81484375 3.29765625 12.5515625 3.125 11.25 C2.96257812 9.99703125 2.80015625 8.7440625 2.6328125 7.453125 C2.0941645 4.51383592 1.51991159 2.52892853 0 0 Z " fill="#5D3936" transform="translate(504,26)"/>
<path d="M0 0 C0.66 0 1.32 0 2 0 C2.66 1.32 3.32 2.64 4 4 C5.2065625 3.7215625 5.2065625 3.7215625 6.4375 3.4375 C7.7059375 3.2209375 7.7059375 3.2209375 9 3 C10 4 10 4 10.09765625 6.72265625 C10.08605469 7.82480469 10.07445312 8.92695312 10.0625 10.0625 C10.05347656 11.16722656 10.04445313 12.27195312 10.03515625 13.41015625 C10.02355469 14.26480469 10.01195312 15.11945312 10 16 C10.99 16 11.98 16 13 16 C12.58578031 20.83256305 10.53586014 22.82679218 7 26 C6.5359375 24.5459375 6.5359375 24.5459375 6.0625 23.0625 C5.30476658 20.15934208 5.30476658 20.15934208 4 19 C3.95936168 17.33382885 3.957279 15.66611905 4 14 C3.38125 13.87625 2.7625 13.7525 2.125 13.625 C0 13 0 13 -2 11 C-2.125 8.0625 -2.125 8.0625 -2 5 C-2 4.01 -2 3.02 -2 2 C-1.34 1.34 -0.68 0.68 0 0 Z " fill="#3984C0" transform="translate(251,28)"/>
<path d="M0 0 C3.95764144 2.25410674 6.15651373 3.7308739 8 8 C8.5701247 13.22614305 7.82117855 16.56671942 5 21 C1.98779062 24.35977201 -1.55465443 24.70514281 -5.87109375 25.08203125 C-8 25 -8 25 -10.5625 23.5625 C-11.036875 23.046875 -11.51125 22.53125 -12 22 C-10.6078125 21.566875 -10.6078125 21.566875 -9.1875 21.125 C-5.68125083 19.88750029 -3.58988581 18.77413919 -1.32421875 15.80078125 C0.29363394 12.37895122 0.30162235 9.9535374 0.1875 6.1875 C0.14689453 4.44533203 0.14689453 4.44533203 0.10546875 2.66796875 C0.07066406 1.78753906 0.03585937 0.90710938 0 0 Z " fill="#44192D" transform="translate(335,30)"/>
<path d="M0 0 C3 2 3 2 3.6171875 4.93359375 C3.70226562 6.08988281 3.78734375 7.24617188 3.875 8.4375 C4.02582031 10.16806641 4.02582031 10.16806641 4.1796875 11.93359375 C4 15 4 15 2.64453125 16.8359375 C0.83813598 18.11457358 -0.98176148 19.09527239 -3 20 C-2.67 21.32 -2.34 22.64 -2 24 C-2.99 24.66 -3.98 25.32 -5 26 C-5.99 25.01 -6.98 24.02 -8 23 C-8 23.66 -8 24.32 -8 25 C-9.65 24.67 -11.3 24.34 -13 24 C-11.35 21.69 -9.7 19.38 -8 17 C-6.35 17.33 -4.7 17.66 -3 18 C-3 17.01 -3 16.02 -3 15 C-3.99 15 -4.98 15 -6 15 C-6 11.7 -6 8.4 -6 5 C-4.35 4.67 -2.7 4.34 -1 4 C-0.67 2.68 -0.34 1.36 0 0 Z " fill="#FA9D18" transform="translate(62,31)"/>
<path d="M0 0 C6.0546875 -0.1953125 6.0546875 -0.1953125 8 0 C10 2 10 2 10.4375 4.375 C10 7 10 7 7.625 9.25 C3.45621859 12.0291876 1.06213555 12.3491128 -4 12 C-6.4375 10.625 -6.4375 10.625 -8 9 C-8 8.34 -8 7.68 -8 7 C-8.66 7 -9.32 7 -10 7 C-10 6.01 -10 5.02 -10 4 C-6.7 3.34 -3.4 2.68 0 2 C0 1.34 0 0.68 0 0 Z " fill="#C18451" transform="translate(490,49)"/>
<path d="M0 0 C0.99 0.33 1.98 0.66 3 1 C2.896875 1.928125 2.79375 2.85625 2.6875 3.8125 C2.790625 4.864375 2.89375 5.91625 3 7 C3.78375 7.433125 4.5675 7.86625 5.375 8.3125 C8 10 8 10 8.77734375 12.1796875 C9.25936624 14.43850823 9.63638197 16.71912326 10 19 C7.03 19.66 4.06 20.32 1 21 C-2.80232031 16.48474463 -3.56193852 13.23760958 -3.33984375 7.34765625 C-2.90812143 4.36529864 -1.87550998 2.34438748 0 0 Z " fill="#3788D2" transform="translate(247,32)"/>
<path d="M0 0 C4.86884221 0.11241194 7.45031291 1.21753078 10.8359375 4.69140625 C11.56683594 5.58666016 11.56683594 5.58666016 12.3125 6.5 C12.75851562 7.04527344 13.20453125 7.59054688 13.6640625 8.15234375 C17.75708186 14.51462214 16.47885725 22.37043596 15.3125 29.5 C13.86422414 33.22413793 13.86422414 33.22413793 11.3125 34.5 C10.17899466 36.51669827 10.17899466 36.51669827 9.3125 38.5 C8.6525 38.17 7.9925 37.84 7.3125 37.5 C7.9725 35.85 8.6325 34.2 9.3125 32.5 C9.9725 32.5 10.6325 32.5 11.3125 32.5 C11.55224178 30.85605639 11.79016913 29.21183013 12.01953125 27.56640625 C12.2136083 26.1975161 12.41920425 24.83020582 12.63671875 23.46484375 C13.26663522 19.21904312 13.25458658 15.68705148 12.3125 11.5 C10.9925 11.17 9.6725 10.84 8.3125 10.5 C8.3125 9.84 8.3125 9.18 8.3125 8.5 C7.714375 8.396875 7.11625 8.29375 6.5 8.1875 C4.3125 7.5 4.3125 7.5 3.0625 6.0625 C0.24203427 3.54422702 -3.0274052 3.2800202 -6.6875 2.5 C-4.24816895 0.06066895 -3.37160972 0.12391827 0 0 Z " fill="#683C36" transform="translate(406.6875,17.5)"/>
<path d="M0 0 C7.92 0 15.84 0 24 0 C22.38208558 2.69652403 20.74434373 5.38348441 19 8 C12.78983131 8.42102839 6.29617943 8.53078629 1 5 C0.67 3.35 0.34 1.7 0 0 Z " fill="#B46A3F" transform="translate(386,48)"/>
<path d="M0 0 C-0.2673122 5.16803594 -0.62821941 8.74112227 -4.3515625 12.6796875 C-8.71527954 16.17479735 -13.35404567 17.8407141 -18.875 18.375 C-22 18 -22 18 -25 16 C-24.00419922 15.70996094 -24.00419922 15.70996094 -22.98828125 15.4140625 C-16.40210691 13.47248648 -16.40210691 13.47248648 -10 11 C-10 8.69 -10 6.38 -10 4 C-8.52184338 3.3310968 -7.04244528 2.66493641 -5.5625 2 C-4.73878906 1.62875 -3.91507812 1.2575 -3.06640625 0.875 C-1 0 -1 0 0 0 Z " fill="#714739" transform="translate(514,45)"/>
<path d="M0 0 C0.99 0.33 1.98 0.66 3 1 C4.3921875 1.4021875 4.3921875 1.4021875 5.8125 1.8125 C11.83298725 4.05542662 16.06000992 7.12001985 18.9375 12.875 C19.03874362 16.31728323 16.99846378 18.33538162 15 21 C15.33 21.66 15.66 22.32 16 23 C14.35 23 12.7 23 11 23 C11 20.69 11 18.38 11 16 C12.32 15.34 13.64 14.68 15 14 C14.20700294 11.82961523 14.20700294 11.82961523 12.15234375 11.3671875 C11.42144531 11.20476563 10.69054687 11.04234375 9.9375 10.875 C8.83728516 10.62363281 8.83728516 10.62363281 7.71484375 10.3671875 C7.14894531 10.24601562 6.58304687 10.12484375 6 10 C7.32 9.01 8.64 8.02 10 7 C6.39006828 5.86519473 3.0157673 5.89984233 -0.75 5.9375 C-2.50570313 5.95103516 -2.50570313 5.95103516 -4.296875 5.96484375 C-5.18890625 5.97644531 -6.0809375 5.98804688 -7 6 C-2.25 1.125 -2.25 1.125 0 0 Z " fill="#C58456" transform="translate(398,20)"/>
<path d="M0 0 C0.70125 0.268125 1.4025 0.53625 2.125 0.8125 C2.9038836 9.88216681 2.9038836 9.88216681 -0.125 13.5 C-2.875 14.8125 -2.875 14.8125 -5.0625 14.75 C-6.875 13.8125 -6.875 13.8125 -8.875 10.8125 C-9.375 7.9375 -9.375 7.9375 -8.875 4.8125 C-4.22026408 -0.27523461 -4.22026408 -0.27523461 0 0 Z " fill="#746573" transform="translate(121.875,34.1875)"/>
<path d="M0 0 C4.22126188 1.40708729 4.22126188 1.40708729 6 4 C6.32756019 6.84475699 6.46421419 9.4085821 6.4375 12.25 C6.4674707 13.35794922 6.4674707 13.35794922 6.49804688 14.48828125 C6.49310415 20.09333202 5.10726663 23.34832956 2 28 C1.34 28 0.68 28 0 28 C-0.0928125 28.8971875 -0.0928125 28.8971875 -0.1875 29.8125 C-1.32434588 32.8732389 -3.2127103 33.43639846 -6 35 C-6.66 35.99 -7.32 36.98 -8 38 C-11.28519475 39.09506492 -13.73663415 39.09960608 -17.1875 39.0625 C-18.81751953 39.04896484 -18.81751953 39.04896484 -20.48046875 39.03515625 C-21.31191406 39.02355469 -22.14335937 39.01195312 -23 39 C-20.11371599 37.42445965 -17.46657616 36.53723627 -14.25 35.875 C-13.05117188 35.62363281 -13.05117188 35.62363281 -11.828125 35.3671875 C-11.22484375 35.24601562 -10.6215625 35.12484375 -10 35 C-10 34.34 -10 33.68 -10 33 C-8.88625 32.7525 -7.7725 32.505 -6.625 32.25 C-2.95384802 31.38994661 -2.95384802 31.38994661 -1.5625 28.875 C-1.376875 28.25625 -1.19125 27.6375 -1 27 C-0.34 27 0.32 27 1 27 C3.44613939 13.25777124 3.44613939 13.25777124 0 0 Z " fill="#522F32" transform="translate(419,24)"/>
<path d="M0 0 C0.66 0.33 1.32 0.66 2 1 C1.32904297 1.65355469 1.32904297 1.65355469 0.64453125 2.3203125 C-7.35982791 10.20520361 -13.31842262 16.71215466 -13.6875 28.375 C-13.72166016 29.11105469 -13.75582031 29.84710938 -13.79101562 30.60546875 C-13.87272789 32.40313853 -13.93805781 34.20154046 -14 36 C-14.66 36 -15.32 36 -16 36 C-16.33951619 34.43883181 -16.67132544 32.87598662 -17 31.3125 C-17.185625 30.44238281 -17.37125 29.57226562 -17.5625 28.67578125 C-18.64119913 22.07838035 -18.64119913 22.07838035 -16.625 18.6875 C-16.08875 18.130625 -15.5525 17.57375 -15 17 C-14.34 17 -13.68 17 -13 17 C-12.731875 15.948125 -12.46375 14.89625 -12.1875 13.8125 C-9.91858617 6.52809245 -6.62885374 3.56938278 0 0 Z M-15 13 C-14.01 13.495 -14.01 13.495 -13 14 C-13.99 14.495 -13.99 14.495 -15 15 C-15 14.34 -15 13.68 -15 13 Z " fill="#381B23" transform="translate(31,11)"/>
<path d="M0 0 C7.23404255 -0.36170213 7.23404255 -0.36170213 10.25 1.0625 C12.88547698 3.98034952 12.39114399 6.34132619 12.25 10.1875 C12.21390625 11.45980469 12.1778125 12.73210938 12.140625 14.04296875 C12.07101562 15.50669922 12.07101562 15.50669922 12 17 C10.2421875 17.9765625 8.484375 18.953125 6.7265625 19.9296875 C4.8387386 21.00897274 4.8387386 21.00897274 3 23 C-2.23728814 23.5819209 -2.23728814 23.5819209 -5 23 C-7 20.5 -7 20.5 -8 18 C-7.2575 18.33 -6.515 18.66 -5.75 19 C-2.86116688 20.22782871 -2.86116688 20.22782871 1 20 C1.33 19.01 1.66 18.02 2 17 C3.65 16.67 5.3 16.34 7 16 C9.55579195 10.46245077 8.62077189 6.61036424 7 1 C4.69 1 2.38 1 0 1 C0 0.67 0 0.34 0 0 Z " fill="#2B60C5" transform="translate(636,29)"/>
<path d="M0 0 C2.84929905 0.59528966 4.08498551 2.23283449 5.92578125 4.40234375 C8.06397785 5.18961155 8.06397785 5.18961155 9.92578125 5.40234375 C9.59578125 6.72234375 9.26578125 8.04234375 8.92578125 9.40234375 C8.26578125 9.07234375 7.60578125 8.74234375 6.92578125 8.40234375 C7.25578125 7.74234375 7.58578125 7.08234375 7.92578125 6.40234375 C-1.47921875 8.38234375 -1.47921875 8.38234375 -11.07421875 10.40234375 C-7.49262361 -0.34244166 -7.49262361 -0.34244166 0 0 Z " fill="#ECB978" transform="translate(488.07421875,28.59765625)"/>
<path d="M0 0 C7.04440079 -0.21133202 13.24112575 -0.07965362 20 2 C19.67 3.32 19.34 4.64 19 6 C14.65507229 7.13896163 10.61379215 6.93100471 6.1875 6.5625 C5.14819336 6.48418945 5.14819336 6.48418945 4.08789062 6.40429688 C2.39145563 6.27560181 0.69565137 6.13863816 -1 6 C-0.67 4.02 -0.34 2.04 0 0 Z " fill="#E9C69D" transform="translate(388,29)"/>
<path d="M0 0 C1.47968324 0.14049518 2.95874516 0.28754826 4.4375 0.4375 C5.67306641 0.55931641 5.67306641 0.55931641 6.93359375 0.68359375 C9 1 9 1 10 2 C11.07744404 13.62100356 11.07744404 13.62100356 9.0234375 18.15625 C7.75 19.6875 7.75 19.6875 5 22 C4.360625 22.639375 3.72125 23.27875 3.0625 23.9375 C0.05069227 25.48903732 -1.82337307 24.9667995 -5 24 C-5.66 23.01 -6.32 22.02 -7 21 C-6.30132813 20.93941406 -5.60265625 20.87882812 -4.8828125 20.81640625 C-3.97273437 20.73261719 -3.06265625 20.64882813 -2.125 20.5625 C-1.22007812 20.48128906 -0.31515625 20.40007813 0.6171875 20.31640625 C3.01110861 20.13010715 3.01110861 20.13010715 5 19 C5.46806645 16.66255706 5.82669794 14.30260921 6.125 11.9375 C6.37636719 10.00197266 6.37636719 10.00197266 6.6328125 8.02734375 C6.75398437 7.02832031 6.87515625 6.02929688 7 5 C5.68 4.67 4.36 4.34 3 4 C3 3.01 3 2.02 3 1 C2.01 0.67 1.02 0.34 0 0 Z " fill="#64A1BC" transform="translate(572,29)"/>
<path d="M0 0 C0 0.66 0 1.32 0 2 C-1.80597656 2.50660156 -1.80597656 2.50660156 -3.6484375 3.0234375 C-5.22405664 3.4736144 -6.79957216 3.92415409 -8.375 4.375 C-9.1690625 4.59671875 -9.963125 4.8184375 -10.78125 5.046875 C-11.92207031 5.37558594 -11.92207031 5.37558594 -13.0859375 5.7109375 C-13.7876709 5.90993652 -14.4894043 6.10893555 -15.21240234 6.31396484 C-17.21445533 6.94325027 -17.21445533 6.94325027 -19 9 C-19.309375 9.804375 -19.61875 10.60875 -19.9375 11.4375 C-21 14 -21 14 -22.4921875 15.1484375 C-24.88320821 18.08456137 -24.84028443 21.54014373 -25.1875 25.1875 C-25.26935547 25.93708984 -25.35121094 26.68667969 -25.43554688 27.45898438 C-25.63540784 29.30475918 -25.81926538 31.15225433 -26 33 C-28.85331893 28.98819068 -27.93951867 24.98394697 -27.375 20.375 C-27.30410156 19.59898438 -27.23320312 18.82296875 -27.16015625 18.0234375 C-26.8984375 15.7734375 -26.8984375 15.7734375 -26 12 C-23.9765625 10.6640625 -23.9765625 10.6640625 -22 10 C-21.67 9.01 -21.34 8.02 -21 7 C-14.87425599 1.0598846 -8.27660865 -0.44338975 0 0 Z " fill="#894520" transform="translate(49,14)"/>
<path d="M0 0 C5.4847144 -0.36564763 5.4847144 -0.36564763 7.66796875 1.18359375 C10.3828669 4.88572759 9.66116127 9.65089333 9 14 C7.15589829 17.99202095 4.67233961 20.5517736 1 23 C-2.1875 23.125 -2.1875 23.125 -5 23 C-5.33 22.34 -5.66 21.68 -6 21 C-5.34 21 -4.68 21 -4 21 C-4 20.34 -4 19.68 -4 19 C-2.35 18.67 -0.7 18.34 1 18 C1 17.34 1 16.68 1 16 C2.32 15.67 3.64 15.34 5 15 C5 11.7 5 8.4 5 5 C4.34 5 3.68 5 3 5 C3 4.34 3 3.68 3 3 C3.66 3 4.32 3 5 3 C5 2.34 5 1.68 5 1 C3.35 1 1.7 1 0 1 C0 0.67 0 0.34 0 0 Z " fill="#973536" transform="translate(327,29)"/>
<path d="M0 0 C-0.33 1.98 -0.66 3.96 -1 6 C-1.33 5.01 -1.66 4.02 -2 3 C-3.98 3 -5.96 3 -8 3 C-8.391875 4.11375 -8.78375 5.2275 -9.1875 6.375 C-10.42482967 9.31960666 -10.73606497 9.85882545 -13.6875 11.4375 C-14.8321875 11.7159375 -14.8321875 11.7159375 -16 12 C-16.20496094 11.44570313 -16.40992188 10.89140625 -16.62109375 10.3203125 C-16.89050781 9.59585938 -17.15992188 8.87140625 -17.4375 8.125 C-17.70433594 7.40570313 -17.97117187 6.68640625 -18.24609375 5.9453125 C-18.97916854 3.96351155 -18.97916854 3.96351155 -20 2 C-13.24112575 -0.07965362 -7.04440079 -0.21133202 0 0 Z " fill="#513736" transform="translate(530,28)"/>
<path d="M0 0 C1.32 0.33 2.64 0.66 4 1 C4.19286332 6.49660457 3.90303246 10.81952275 2 16 C-0.52475462 17.26237731 -2.31200466 17.09856404 -5.125 17.0625 C-6.03507813 17.05347656 -6.94515625 17.04445313 -7.8828125 17.03515625 C-8.93082031 17.01775391 -8.93082031 17.01775391 -10 17 C-12.15305957 13.14243493 -13.39253254 10.44870215 -13 6 C-12.67 7.32 -12.34 8.64 -12 10 C-9.69 10 -7.38 10 -5 10 C-5.99 10.66 -6.98 11.32 -8 12 C-6.35 12.33 -4.7 12.66 -3 13 C0.73663399 8.00837717 0.73663399 8.00837717 1 2 C0.67 1.34 0.34 0.68 0 0 Z " fill="#89C7D8" transform="translate(575,33)"/>
<path d="M0 0 C5.90675598 5.75530069 5.90675598 5.75530069 6.16796875 9.2421875 C6.17441406 10.11101563 6.18085938 10.97984375 6.1875 11.875 C6.20167969 12.73867188 6.21585937 13.60234375 6.23046875 14.4921875 C5.98859252 17.1241288 5.32983541 18.73980544 4 21 C3.34 21 2.68 21 2 21 C2 18.36 2 15.72 2 13 C0.68 12.67 -0.64 12.34 -2 12 C-1.85904936 10.3745692 -1.71207913 8.74965949 -1.5625 7.125 C-1.48128906 6.22007813 -1.40007812 5.31515625 -1.31640625 4.3828125 C-1 2 -1 2 0 0 Z " fill="#394940" transform="translate(269,30)"/>
<path d="M0 0 C0.7734375 -0.01675781 1.546875 -0.03351562 2.34375 -0.05078125 C4.97015897 0.39171157 5.83557103 1.29064557 7.5 3.3125 C6.5 6.3125 6.5 6.3125 3.5 8.3125 C1.5625 8.54296875 1.5625 8.54296875 -0.5 8.5 C-1.180625 8.49355469 -1.86125 8.48710938 -2.5625 8.48046875 C-4.5 8.3125 -4.5 8.3125 -7.5 7.3125 C-7.6875 4.9375 -7.6875 4.9375 -7.5 2.3125 C-4.40219052 0.24729368 -3.5459519 0.01772976 0 0 Z " fill="#5C9FF5" transform="translate(635.5,33.6875)"/>
<path d="M0 0 C0.33 0 0.66 0 1 0 C1.01417969 0.70125 1.02835938 1.4025 1.04296875 2.125 C1.4641967 10.50402079 3.4722515 15.6443368 9.5625 21.4375 C14.28044037 24.46182075 19.52714821 24.66231964 25 24 C28.14772917 22.92468879 31.05977129 21.54781596 34 20 C34.66 19.67 35.32 19.34 36 19 C34.61497412 22.43370999 33.36875613 23.73405974 30 25.25 C24.22739525 27.58498619 18.82550334 28.08717679 12.80078125 26.375 C6.1965028 23.55717453 2.64076754 18.35287279 -0.4375 12.0625 C-1.20253796 7.89729331 -0.68268669 4.15147309 0 0 Z " fill="#FAC940" transform="translate(27,36)"/>
<path d="M0 0 C3.5 1.75 3.5 1.75 5.12890625 2.84375 C8.80891945 5.11782914 12.96570437 6.47394853 17 8 C17 8.99 17 9.98 17 11 C16.46375 10.690625 15.9275 10.38125 15.375 10.0625 C12.94671931 8.85311491 12.94671931 8.85311491 9.875 8.5 C7 8 7 8 5 6 C0.21137284 4.85676919 -4.48671269 4.88004274 -9.375 4.9375 C-10.47908203 4.94426758 -10.47908203 4.94426758 -11.60546875 4.95117188 C-13.40368158 4.96284858 -15.20185197 4.98077989 -17 5 C-12.12330139 -0.36436848 -6.97902466 -0.89001559 0 0 Z " fill="#351924" transform="translate(52,6)"/>
<path d="M0 0 C4.875 1.75 4.875 1.75 6 4 C6.60306016 10.34372903 6.3029393 15.49510117 3 21 C-0.4978222 24.17983837 -2.0542982 25.03100662 -6.8125 24.875 C-7.864375 24.58625 -8.91625 24.2975 -10 24 C-10.33 23.34 -10.66 22.68 -11 22 C-9.41800369 21.35089846 -7.83434276 20.70585306 -6.25 20.0625 C-5.36828125 19.70285156 -4.4865625 19.34320313 -3.578125 18.97265625 C-1 18 -1 18 3 17 C3.33 12.38 3.66 7.76 4 3 C3.01 3 2.02 3 1 3 C0.67 2.01 0.34 1.02 0 0 Z " fill="#995E3B" transform="translate(188,29)"/>
<path d="M0 0 C-0.66 1.32 -1.32 2.64 -2 4 C-8.27 4 -14.54 4 -21 4 C-21 2.68 -21 1.36 -21 0 C-19.95199219 -0.09087891 -19.95199219 -0.09087891 -18.8828125 -0.18359375 C-17.97273438 -0.26738281 -17.06265625 -0.35117187 -16.125 -0.4375 C-15.22007812 -0.51871094 -14.31515625 -0.59992187 -13.3828125 -0.68359375 C-8.20867684 -1.37065111 -5.32725146 -1.38113927 0 0 Z " fill="#DEB080" transform="translate(407,43)"/>
<path d="M0 0 C1.65 0 3.3 0 5 0 C5.33 0.99 5.66 1.98 6 3 C6.99 3 7.98 3 9 3 C9.02736707 4.39572052 9.04655989 5.79160221 9.0625 7.1875 C9.07410156 7.96480469 9.08570313 8.74210937 9.09765625 9.54296875 C8.99047051 12.23976191 8.86463804 14.43139235 8 17 C5.8203125 18.6171875 5.8203125 18.6171875 3.125 19.875 C2.24070313 20.30554688 1.35640625 20.73609375 0.4453125 21.1796875 C-2 22 -2 22 -5 21 C-1.93882432 18.37613513 -1.26826873 18 3 18 C2.97679687 17.39671875 2.95359375 16.7934375 2.9296875 16.171875 C2.91164062 15.37265625 2.89359375 14.5734375 2.875 13.75 C2.85179687 12.96109375 2.82859375 12.1721875 2.8046875 11.359375 C3.01807594 8.7816426 3.81018613 7.26448446 5 5 C4.70194993 2.80252869 4.70194993 2.80252869 4 1 C2.68 0.67 1.36 0.34 0 0 Z " fill="#CB8849" transform="translate(183,29)"/>
<path d="M0 0 C0.61875 0.33 1.2375 0.66 1.875 1 C-1.33463706 2.06987902 -3.22528445 1.91843351 -6.5625 1.6875 C-10.47549903 1.51077221 -10.47549903 1.51077221 -13.734375 3.33203125 C-14.97608535 5.15508715 -14.97608535 5.15508715 -16.125 8 C-17.775 7.67 -19.425 7.34 -21.125 7 C-21.74375 7.78375 -22.3625 8.5675 -23 9.375 C-25.125 12 -25.125 12 -27.125 14 C-26.61770927 9.56120611 -25.18772483 7.22827752 -22.125 4 C-15.19769353 -1.08944965 -8.32424186 -2.6637574 0 0 Z " fill="#FCCB46" transform="translate(55.125,21)"/>
<path d="M0 0 C2.50181751 1.84916947 2.99528936 2.97901626 3.6875 6.0625 C4.64102564 18.07692308 4.64102564 18.07692308 3 23 C1.01924973 24.36176581 -0.98079663 25.69593116 -3 27 C-3.33 27.66 -3.66 28.32 -4 29 C-10.18768968 32.15221927 -10.18768968 32.15221927 -13.23046875 31.58203125 C-14.10638672 31.29392578 -14.10638672 31.29392578 -15 31 C-14.39671875 30.76925781 -13.7934375 30.53851563 -13.171875 30.30078125 C-6.55339018 27.60001244 -3.12980625 24.90790068 -0.25 18.25 C1.82737511 12.27754656 1.57044557 6.08547659 0 0 Z " fill="#C5671B" transform="translate(67,31)"/>
<path d="M0 0 C1.134375 0.020625 2.26875 0.04125 3.4375 0.0625 C3.4375 0.7225 3.4375 1.3825 3.4375 2.0625 C2.7775 2.0625 2.1175 2.0625 1.4375 2.0625 C1.4375 3.3825 1.4375 4.7025 1.4375 6.0625 C0.7775 6.0625 0.1175 6.0625 -0.5625 6.0625 C-0.8925 6.7225 -1.2225 7.3825 -1.5625 8.0625 C-2.8825 7.7325 -4.2025 7.4025 -5.5625 7.0625 C-5.665625 7.660625 -5.76875 8.25875 -5.875 8.875 C-6.65126455 11.34493264 -7.63338921 12.38501235 -9.5625 14.0625 C-10.17764196 6.80382492 -10.17764196 6.80382492 -7.125 3.125 C-6.279375 2.444375 -5.43375 1.76375 -4.5625 1.0625 C-3.5625 0.0625 -3.5625 0.0625 0 0 Z " fill="#DE634D" transform="translate(328.5625,29.9375)"/>
<path d="M0 0 C3.875 1.75 3.875 1.75 5 4 C5.40616229 7.65546065 5.21434253 9.58917682 3.5 12.875 C0.76112567 15.20304318 0.16890388 15.30643811 -3.25 15.3125 C-4.4875 15.209375 -5.725 15.10625 -7 15 C-6.195625 14.360625 -5.39125 13.72125 -4.5625 13.0625 C-1.5068643 10.92875933 -1.5068643 10.92875933 -0.68359375 7.71484375 C-0.60238281 6.79832031 -0.52117187 5.88179687 -0.4375 4.9375 C-0.35371094 4.01839844 -0.26992187 3.09929688 -0.18359375 2.15234375 C-0.12300781 1.44207031 -0.06242187 0.73179688 0 0 Z " fill="#322A4C" transform="translate(124,35)"/>
<path d="M0 0 C0.33 0.66 0.66 1.32 1 2 C3.64 2 6.28 2 9 2 C8.67 2.66 8.34 3.32 8 4 C7.34 4 6.68 4 6 4 C6 4.99 6 5.98 6 7 C7.32 7.33 8.64 7.66 10 8 C10 8.66 10 9.32 10 10 C6.7 10 3.4 10 0 10 C-0.33 10.99 -0.66 11.98 -1 13 C-1.07654536 8.48382401 -1.10228696 4.40914783 0 0 Z " fill="#E39751" transform="translate(386,33)"/>
<path d="M0 0 C1.98 0 3.96 0 6 0 C8.23463569 4.33782222 8.17749207 7.29003174 7 12 C4.9375 14.9375 4.9375 14.9375 3 17 C-0.37462715 16.45276317 -2.08235 15.9451 -5 14 C-3.3603125 13.62875 -3.3603125 13.62875 -1.6875 13.25 C2.06477895 11.97804103 3.22667708 11.44233272 5 8 C5 7.01 5 6.02 5 5 C2.525 4.01 2.525 4.01 0 3 C0 2.01 0 1.02 0 0 Z " fill="#94D2E1" transform="translate(569,30)"/>
<path d="M0 0 C2.875 0.1875 2.875 0.1875 6 1 C7.375 3.5625 7.375 3.5625 8 6 C8.99 6 9.98 6 11 6 C11.65255319 9.68918683 12.13697786 13.24891403 12 17 C9.6875 20.1875 9.6875 20.1875 7 22 C6.34 22 5.68 22 5 22 C5 21.34 5 20.68 5 20 C5.99 19.34 6.98 18.68 8 18 C8.72382467 15.94074861 8.72382467 15.94074861 9 14 C8.34 14 7.68 14 7 14 C7.57584432 11.61435923 8.22227595 9.33317216 9 7 C7.68 7 6.36 7 5 7 C5 6.34 5 5.68 5 5 C4.34 5 3.68 5 3 5 C3 3.68 3 2.36 3 1 C2.01 0.67 1.02 0.34 0 0 Z " fill="#BB8052" transform="translate(493,25)"/>
<path d="M0 0 C-2.49505962 2.49505962 -3.67328888 2.35948376 -7.125 2.625 C-8.03507812 2.69976562 -8.94515625 2.77453125 -9.8828125 2.8515625 C-10.58148438 2.90054688 -11.28015625 2.94953125 -12 3 C-12 3.99 -12 4.98 -12 6 C-11.34 6.33 -10.68 6.66 -10 7 C-16.02596573 8.0712828 -21.88909517 8.09945415 -28 8 C-27.67 7.34 -27.34 6.68 -27 6 C-27.66 5.67 -28.32 5.34 -29 5 C-28.34 3.68 -27.68 2.36 -27 1 C-26.67 1.99 -26.34 2.98 -26 4 C-21.71 4 -17.42 4 -13 4 C-13 3.34 -13 2.68 -13 2 C-4.57142857 -0.28571429 -4.57142857 -0.28571429 0 0 Z " fill="#875E44" transform="translate(492,50)"/>
<path d="M0 0 C0 3.20380372 -0.4010193 3.90108185 -1.984375 6.53125 C-4.57109206 11.51307546 -4.45821049 15.99043007 -4.25 21.5 C-4.23195313 22.4178125 -4.21390625 23.335625 -4.1953125 24.28125 C-4.14863102 26.52196092 -4.08318522 28.76039799 -4 31 C-4.99 31 -5.98 31 -7 31 C-8.2391257 20.97261358 -9.18096452 12.22779309 -3.25390625 3.59375 C-2 2 -2 2 0 0 Z " fill="#4F2722" transform="translate(24,21)"/>
<path d="M0 0 C1.485 0.99 1.485 0.99 3 2 C3 2.66 3 3.32 3 4 C3.556875 4.0825 4.11375 4.165 4.6875 4.25 C7 5 7 5 9.3125 6.875 C11.59093158 8.67655055 13.12936497 9.57460232 15.75 10.625 C19 12 19 12 20 14 C17.36 14 14.72 14 12 14 C12 13.34 12 12.68 12 12 C10.824375 11.9071875 10.824375 11.9071875 9.625 11.8125 C8.75875 11.544375 7.8925 11.27625 7 11 C6.33333333 9.33333333 5.66666667 7.66666667 5 6 C2.45224694 5.10613836 2.45224694 5.10613836 0 5 C0 3.35 0 1.7 0 0 Z " fill="#5D2D20" transform="translate(20,55)"/>
<path d="M0 0 C0 0.66 0 1.32 0 2 C0.99 2 1.98 2 3 2 C3.33 4.31 3.66 6.62 4 9 C3.5875 8.61328125 3.175 8.2265625 2.75 7.828125 C-4.67657452 1.1309462 -10.9682768 -1.5888638 -21 -2 C-20 -4 -20 -4 -18.20703125 -4.671875 C-11.97217801 -5.59882663 -5.53626119 -2.59144141 0 0 Z " fill="#D0721D" transform="translate(63,22)"/>
<path d="M0 0 C0.66 0 1.32 0 2 0 C2.66 1.32 3.32 2.64 4 4 C5.65 3.67 7.3 3.34 9 3 C9 3.99 9 4.98 9 6 C8.01 6 7.02 6 6 6 C5.67 6.99 5.34 7.98 5 9 C3.35 9 1.7 9 0 9 C0 9.66 0 10.32 0 11 C-0.66 11 -1.32 11 -2 11 C-2 2 -2 2 0 0 Z " fill="#D0D05F" transform="translate(251,28)"/>
<path d="M0 0 C0.99 0.33 1.98 0.66 3 1 C4.85931264 10.19514613 4.85931264 10.19514613 2.87109375 14.37109375 C1.3530936 16.38368042 -0.24637889 18.19118016 -2 20 C-2.66 20.845625 -3.32 21.69125 -4 22.5625 C-6 24 -6 24 -9.25 23.75 C-10.1575 23.5025 -11.065 23.255 -12 23 C-12 22.67 -12 22.34 -12 22 C-10.6078125 21.566875 -10.6078125 21.566875 -9.1875 21.125 C-5.68125083 19.88750029 -3.58988581 18.77413919 -1.32421875 15.80078125 C0.29363394 12.37895122 0.30162235 9.9535374 0.1875 6.1875 C0.14689453 4.44533203 0.14689453 4.44533203 0.10546875 2.66796875 C0.07066406 1.78753906 0.03585937 0.90710938 0 0 Z " fill="#68232F" transform="translate(335,30)"/>
<path d="M0 0 C-0.33 0.99 -0.66 1.98 -1 3 C-3.765625 4.16796875 -3.765625 4.16796875 -7.25 5.1875 C-8.38953125 5.53167969 -9.5290625 5.87585937 -10.703125 6.23046875 C-13.62909513 6.91342623 -16.0176081 7.16257399 -19 7 C-18.67 5.68 -18.34 4.36 -18 3 C-15.93918639 2.49309416 -13.87626474 1.99475381 -11.8125 1.5 C-10.66394531 1.2215625 -9.51539063 0.943125 -8.33203125 0.65625 C-5.43181171 0.08504615 -2.93903615 -0.13283779 0 0 Z " fill="#F8CB86" transform="translate(496,35)"/>
<path d="M0 0 C4.74551271 3.60004413 6.10769693 8.32170776 7 14 C7.0849495 18.72718963 6.98403606 23.36631121 6 28 C5.01 28.66 4.02 29.32 3 30 C3.10699219 29.12859375 3.21398437 28.2571875 3.32421875 27.359375 C4.1802948 18.85384522 3.54208564 12.1296402 1 4 C0.65724868 2.66905657 0.3200284 1.33658921 0 0 Z " fill="#864221" transform="translate(68,25)"/>
<path d="M0 0 C-1.32 0.33 -2.64 0.66 -4 1 C-3.896875 2.093125 -3.79375 3.18625 -3.6875 4.3125 C-3.8421875 6.1378125 -3.8421875 6.1378125 -4 8 C-6.375 10 -6.375 10 -9 11 C-9.66 10.67 -10.32 10.34 -11 10 C-10.34 9.34 -9.68 8.68 -9 8 C-8.83312552 5.41645782 -8.83312552 5.41645782 -9 3 C-9.99 2.67 -10.98 2.34 -12 2 C-12.99 1.67 -13.98 1.34 -15 1 C-9.82909976 -1.28127952 -5.0772337 -3.31972973 0 0 Z " fill="#9F6C49" transform="translate(508,48)"/>
<path d="M0 0 C-1.54908681 1.03272454 -3.10090818 2.06251156 -4.68359375 3.04296875 C-10.20131586 6.64362037 -13.08411659 10.41278999 -14.75 16.9375 C-14.8325 17.618125 -14.915 18.29875 -15 19 C-15.33 19 -15.66 19 -16 19 C-17.40913826 13.36344696 -16.73956036 10.55846884 -13.91015625 5.50390625 C-13.60980469 5.00761719 -13.30945313 4.51132812 -13 4 C-12.01 4 -11.02 4 -10 4 C-9.67 3.01 -9.34 2.02 -9 1 C-5.8035914 -0.06546953 -3.34252724 -0.07427838 0 0 Z " fill="#C76D1E" transform="translate(42,20)"/>
<path d="M0 0 C1.17571451 3.67410785 1.07366746 7.16929183 1 11 C0.34 11 -0.32 11 -1 11 C-0.57739475 13.12801223 -0.13642627 15.25238452 0.3125 17.375 C0.55613281 18.55835937 0.79976562 19.74171875 1.05078125 20.9609375 C1.73763609 24.27925004 1.73763609 24.27925004 5 26 C5 26.66 5 27.32 5 28 C3.35 27.67 1.7 27.34 0 27 C-3.02388641 18.68431238 -2.72278264 9.61391319 -1 1 C-0.67 0.67 -0.34 0.34 0 0 Z " fill="#A0531F" transform="translate(25,30)"/>
<path d="M0 0 C1.51400391 0.01740234 1.51400391 0.01740234 3.05859375 0.03515625 C4.07050781 0.04417969 5.08242188 0.05320312 6.125 0.0625 C7.29869141 0.07990234 7.29869141 0.07990234 8.49609375 0.09765625 C5.49609375 2.09765625 5.49609375 2.09765625 3.49609375 2.09765625 C3.49609375 4.40765625 3.49609375 6.71765625 3.49609375 9.09765625 C2.50609375 9.59265625 2.50609375 9.59265625 1.49609375 10.09765625 C-0.62890625 9.16015625 -0.62890625 9.16015625 -2.50390625 8.09765625 C-2.50390625 5.09765625 -2.50390625 5.09765625 -1.00390625 3.41015625 C-0.26140625 2.76046875 -0.26140625 2.76046875 0.49609375 2.09765625 C-0.12265625 2.59265625 -0.74140625 3.08765625 -1.37890625 3.59765625 C-3.50390625 5.09765625 -3.50390625 5.09765625 -5.50390625 5.09765625 C-3.09571996 0.12073791 -3.09571996 0.12073791 0 0 Z " fill="#FCB72B" transform="translate(45.50390625,21.90234375)"/>
<path d="M0 0 C2.79297711 0.44099639 5.31340243 1.10446748 8 2 C7.58578031 6.83256305 5.53586014 8.82679218 2 12 C0.73155349 8.36378667 -0.45411618 4.82118677 -1 1 C-0.67 0.67 -0.34 0.34 0 0 Z " fill="#667D40" transform="translate(256,42)"/>
<path d="M0 0 C1.32 0.33 2.64 0.66 4 1 C3.44449305 4.59905908 2.25112752 5.99909799 -0.5625 8.25 C-1.20316406 8.77078125 -1.84382812 9.2915625 -2.50390625 9.828125 C-3.24447266 10.40820312 -3.24447266 10.40820312 -4 11 C-5.32 10.34 -6.64 9.68 -8 9 C-7.01 8.67 -6.02 8.34 -5 8 C-4.67 5.69 -4.34 3.38 -4 1 C-3.01 1.33 -2.02 1.66 -1 2 C-0.67 1.34 -0.34 0.68 0 0 Z " fill="#704E44" transform="translate(529,29)"/>
<path d="M0 0 C0.66 0.33 1.32 0.66 2 1 C1.525625 1.433125 1.05125 1.86625 0.5625 2.3125 C-1.23686957 4.02309613 -1.23686957 4.02309613 -2 7 C-4.06640625 7.94921875 -4.06640625 7.94921875 -6.5625 8.6875 C-7.80193359 9.06455078 -7.80193359 9.06455078 -9.06640625 9.44921875 C-9.70449219 9.63097656 -10.34257813 9.81273438 -11 10 C-11 10.66 -11 11.32 -11 12 C-13.77141717 12.08089542 -16.54047819 12.14044062 -19.3125 12.1875 C-20.09818359 12.21263672 -20.88386719 12.23777344 -21.69335938 12.26367188 C-22.45068359 12.27333984 -23.20800781 12.28300781 -23.98828125 12.29296875 C-24.68477783 12.3086792 -25.38127441 12.32438965 -26.09887695 12.34057617 C-28.54489783 11.90238443 -29.42702086 10.86562642 -31 9 C-30.14277344 9.09539062 -29.28554688 9.19078125 -28.40234375 9.2890625 C-20.9476701 10.01183807 -15.55798467 10.3441064 -8.8125 6.875 C-7 6 -7 6 -3 6 C-2.87625 5.38125 -2.7525 4.7625 -2.625 4.125 C-2 2 -2 2 0 0 Z " fill="#894320" transform="translate(67,56)"/>
<path d="M0 0 C-0.49230769 7.38461538 -0.49230769 7.38461538 -3.0625 10.5 C-3.701875 10.995 -4.34125 11.49 -5 12 C-6.5 10.8125 -6.5 10.8125 -8 9 C-8.1875 6.3125 -8.1875 6.3125 -8 4 C-1.125 0 -1.125 0 0 0 Z " fill="#613D36" transform="translate(514,45)"/>
<path d="M0 0 C0.33 1.32 0.66 2.64 1 4 C-1.41575607 4.50478485 -3.83244361 5.00397642 -6.25 5.5 C-6.93191406 5.64308594 -7.61382812 5.78617188 -8.31640625 5.93359375 C-11.64633121 6.61251049 -14.58332551 7 -18 7 C-18 6.01 -18 5.02 -18 4 C-15.5636811 3.32873871 -13.12611117 2.66283646 -10.6875 2 C-9.65206055 1.71382812 -9.65206055 1.71382812 -8.59570312 1.421875 C-5.64212051 0.62283816 -3.07440781 0 0 0 Z " fill="#F5B767" transform="translate(495,38)"/>
<path d="M0 0 C0.66 0.33 1.32 0.66 2 1 C-0.29917452 4.73422976 -2.15645251 5.70981021 -6.375 6.75 C-7.77878906 7.11351562 -7.77878906 7.11351562 -9.2109375 7.484375 C-11.88250582 7.97827839 -14.29124562 8.09850016 -17 8 C-17.33 6.68 -17.66 5.36 -18 4 C-17.00097656 3.95101562 -16.00195312 3.90203125 -14.97265625 3.8515625 C-13.68230469 3.77679688 -12.39195312 3.70203125 -11.0625 3.625 C-9.77472656 3.55539063 -8.48695313 3.48578125 -7.16015625 3.4140625 C-6.11730469 3.27742188 -5.07445312 3.14078125 -4 3 C-3.67 2.34 -3.34 1.68 -3 1 C-2.01 0.67 -1.02 0.34 0 0 Z " fill="#EBAD61" transform="translate(495,44)"/>
<path d="M0 0 C7.25566343 -0.61488673 7.25566343 -0.61488673 10.875 2.375 C11.57625 3.24125 12.2775 4.1075 13 5 C13.66 5.66 14.32 6.32 15 7 C16.26772861 11.31027728 16.07544524 15.54873111 16 20 C14.35 20.33 12.7 20.66 11 21 C11.66 20.01 12.32 19.02 13 18 C13.24187651 15.25481679 13.24187651 15.25481679 13.125 12.3125 C13.09792969 10.82169922 13.09792969 10.82169922 13.0703125 9.30078125 C13.04710937 8.54152344 13.02390625 7.78226563 13 7 C12.01 7 11.02 7 10 7 C9.34 5.35 8.68 3.7 8 2 C5.36 1.67 2.72 1.34 0 1 C0 0.67 0 0.34 0 0 Z " fill="#9B6647" transform="translate(491,24)"/>
<path d="M0 0 C1.65 0.33 3.3 0.66 5 1 C5 1.66 5 2.32 5 3 C5.99 3.33 6.98 3.66 8 4 C6 7 6 7 3.8359375 7.51171875 C3.02382812 7.56972656 2.21171875 7.62773438 1.375 7.6875 C0.14910156 7.78611328 0.14910156 7.78611328 -1.1015625 7.88671875 C-1.72804687 7.92410156 -2.35453125 7.96148437 -3 8 C-3 7.01 -3 6.02 -3 5 C-2.34 5 -1.68 5 -1 5 C-0.67 3.35 -0.34 1.7 0 0 Z " fill="#F7C070" transform="translate(179,31)"/>
<path d="M0 0 C4.67623652 1.50307602 5.85884357 4.8653531 8 9 C10.01906289 13.03812578 9.50154155 18.05245552 8.3984375 22.3359375 C6.45549451 27.77225275 6.45549451 27.77225275 4 29 C4.33 28.05125 4.66 27.1025 5 26.125 C7.12171257 18.55399688 6.87199133 9.99507898 3 3 C2.01 2.67 1.02 2.34 0 2 C0 1.34 0 0.68 0 0 Z " fill="#F9C73D" transform="translate(60,25)"/>
<path d="M0 0 C1.32 0 2.64 0 4 0 C3.74438677 2.3431213 3.40729228 4.67843403 3 7 C2.01 7.495 2.01 7.495 1 8 C1 9.32 1 10.64 1 12 C-0.65 12.66 -2.3 13.32 -4 14 C-4.75 11.75 -4.75 11.75 -5 9 C-3.71034824 7.62437146 -2.37310707 6.29233607 -1 5 C-0.20318682 2.35815459 -0.20318682 2.35815459 0 0 Z " fill="#62423B" transform="translate(521,30)"/>
<path d="M0 0 C-2.37258487 2.19007834 -3.76464913 2.965678 -7 3.4375 C-10.63667544 2.9071515 -11.75997722 1.84310584 -14 -1 C-14 -1.33 -14 -1.66 -14 -2 C-8.64887908 -3.41647318 -4.64323847 -3.09549231 0 0 Z " fill="#C78C57" transform="translate(495,57)"/>
<path d="M0 0 C0.33 1.32 0.66 2.64 1 4 C1.66 4 2.32 4 3 4 C2.7215625 4.86625 2.7215625 4.86625 2.4375 5.75 C1.9502182 8.25602068 2.31760183 9.57369541 3 12 C3 13.32 3 14.64 3 16 C3.30404678 17.67225729 3.63128912 19.34080104 4 21 C-0.51273593 16.89751279 -1.26362111 13.27298151 -1.625 7.25 C-1.69976563 6.07953125 -1.77453125 4.9090625 -1.8515625 3.703125 C-1.90054687 2.81109375 -1.94953125 1.9190625 -2 1 C-1.34 0.67 -0.68 0.34 0 0 Z " fill="#FCB92A" transform="translate(29,33)"/>
<path d="M0 0 C0.66 0.33 1.32 0.66 2 1 C2 2.65 2 4.3 2 6 C0.54176788 6.0270043 -0.91660675 6.04639787 -2.375 6.0625 C-3.18710937 6.07410156 -3.99921875 6.08570313 -4.8359375 6.09765625 C-7 6 -7 6 -9 5 C-9 3.68 -9 2.36 -9 1 C-6.01405576 -0.49297212 -3.29146376 -0.11755228 0 0 Z " fill="#6D9C98" transform="translate(262,26)"/>
<path d="M0 0 C0 0.33 0 0.66 0 1 C-1.7015625 1.12375 -1.7015625 1.12375 -3.4375 1.25 C-12.99826894 2.51242548 -19.22926937 7.40534038 -26 14 C-26 9.96635831 -24.52872618 8.62805784 -21.890625 5.71875 C-15.4487219 -0.13752554 -8.36562967 -0.56292088 0 0 Z " fill="#653122" transform="translate(49,13)"/>
<path d="M0 0 C1.5625 1.8125 1.5625 1.8125 3 4 C2.67 4.99 2.34 5.98 2 7 C0.15234375 7.73046875 0.15234375 7.73046875 -2.0625 8.1875 C-2.79597656 8.34605469 -3.52945313 8.50460938 -4.28515625 8.66796875 C-4.85105469 8.77753906 -5.41695312 8.88710938 -6 9 C-9 5.25 -9 5.25 -9 3 C-6.03 3 -3.06 3 0 3 C0 2.01 0 1.02 0 0 Z " fill="#3C7CA6" transform="translate(254,44)"/>
<path d="M0 0 C0.33 0 0.66 0 1 0 C1.05398987 2.27057377 1.09278742 4.54151288 1.125 6.8125 C1.14820313 8.07707031 1.17140625 9.34164062 1.1953125 10.64453125 C1 14 1 14 -1 17 C-1.66 17 -2.32 17 -3 17 C-3.33 12.71 -3.66 8.42 -4 4 C-3.01 4 -2.02 4 -1 4 C-0.67 2.68 -0.34 1.36 0 0 Z " fill="#2666A4" transform="translate(264,27)"/>
<path d="M0 0 C1.32 0.66 2.64 1.32 4 2 C3.67 6.62 3.34 11.24 3 16 C1.35 16.33 -0.3 16.66 -2 17 C-1.505 15.515 -1.505 15.515 -1 14 C-0.77439324 11.60745424 -0.59151405 9.21071877 -0.4375 6.8125 C-0.35371094 5.54019531 -0.26992188 4.26789062 -0.18359375 2.95703125 C-0.12300781 1.98121094 -0.06242187 1.00539063 0 0 Z " fill="#184885" transform="translate(265,27)"/>
<path d="M0 0 C0.625 2.875 0.625 2.875 1 6 C0.34 6.66 -0.32 7.32 -1 8 C-4.27310883 7.79107816 -6.32433057 7.56305786 -8.875 5.4375 C-9.24625 4.963125 -9.6175 4.48875 -10 4 C-8.88625 3.525625 -7.7725 3.05125 -6.625 2.5625 C-0.68 0 -0.68 0 0 0 Z " fill="#1A4B90" transform="translate(258,49)"/>
<path d="M0 0 C5.445 0.495 5.445 0.495 11 1 C8.40229297 3.87603279 6.81394937 5.33311999 3 6 C1.41307361 6.07866959 -0.17678249 6.10784114 -1.765625 6.09765625 C-2.65507812 6.09443359 -3.54453125 6.09121094 -4.4609375 6.08789062 C-5.38132812 6.07951172 -6.30171875 6.07113281 -7.25 6.0625 C-8.18585938 6.05798828 -9.12171875 6.05347656 -10.0859375 6.04882812 C-12.39069041 6.03706918 -14.69531227 6.02063426 -17 6 C-17 5.67 -17 5.34 -17 5 C-16.43490723 4.98541748 -15.86981445 4.97083496 -15.28759766 4.95581055 C-12.73269981 4.88143942 -10.17912502 4.78474758 -7.625 4.6875 C-6.73554688 4.66494141 -5.84609375 4.64238281 -4.9296875 4.61914062 C-4.07890625 4.58369141 -3.228125 4.54824219 -2.3515625 4.51171875 C-1.17327881 4.47244263 -1.17327881 4.47244263 0.02880859 4.43237305 C2.40040156 4.15110403 2.40040156 4.15110403 4 1 C2.68 0.67 1.36 0.34 0 0 Z " fill="#D09969" transform="translate(403,42)"/>
<path d="M0 0 C0.66 0.33 1.32 0.66 2 1 C0.68 2.65 -0.64 4.3 -2 6 C-1.34 6.66 -0.68 7.32 0 8 C-3.05693322 9.52846661 -5.62984547 9.23242445 -9 9 C-11.4375 7.5 -11.4375 7.5 -13 6 C-11.453125 5.9071875 -11.453125 5.9071875 -9.875 5.8125 C-5.11537173 4.81451343 -3.46407037 3.29509133 0 0 Z " fill="#1D439B" transform="translate(645,46)"/>
<path d="M0 0 C6.0546875 -0.1953125 6.0546875 -0.1953125 8 0 C10 2 10 2 10.4375 4.375 C10 7 10 7 7.625 9.25 C3.44269704 12.03820198 1.03978134 12.09332928 -4 12 C-4 11.67 -4 11.34 -4 11 C0.95 9.515 0.95 9.515 6 8 C6.33 6.35 6.66 4.7 7 3 C5.824375 2.814375 5.824375 2.814375 4.625 2.625 C2 2 2 2 0 0 Z " fill="#B3794D" transform="translate(490,49)"/>
<path d="M0 0 C0.66 0 1.32 0 2 0 C2.36351562 1.21236328 2.36351562 1.21236328 2.734375 2.44921875 C5.13639908 10.39246859 5.13639908 10.39246859 10 17 C10.66 17.66 11.32 18.32 12 19 C10.68 19 9.36 19 8 19 C8 18.34 8 17.68 8 17 C7.34 17 6.68 17 6 17 C6 16.34 6 15.68 6 15 C5.36578125 14.80664062 4.7315625 14.61328125 4.078125 14.4140625 C2 13 2 13 1.171875 9.9609375 C1.03265625 8.77757812 0.8934375 7.59421875 0.75 6.375 C0.60046875 5.18648437 0.4509375 3.99796875 0.296875 2.7734375 C0.19890625 1.85820313 0.1009375 0.94296875 0 0 Z " fill="#D3771E" transform="translate(24,41)"/>
<path d="M0 0 C0.33 0.99 0.66 1.98 1 3 C1.66 3 2.32 3 3 3 C2.67 4.65 2.34 6.3 2 8 C1.01 8.33 0.02 8.66 -1 9 C-1 9.66 -1 10.32 -1 11 C-1.99 11.33 -2.98 11.66 -4 12 C-3.34 9.69 -2.68 7.38 -2 5 C-2.99 4.67 -3.98 4.34 -5 4 C-3.36587557 2.29159719 -2.13093906 1.06546953 0 0 Z " fill="#DD9B5A" transform="translate(499,36)"/>
<path d="M0 0 C5.94 0 11.88 0 18 0 C18 0.33 18 0.66 18 1 C16.35 1 14.7 1 13 1 C12.67 1.99 12.34 2.98 12 4 C8.37 4 4.74 4 1 4 C0.67 2.68 0.34 1.36 0 0 Z " fill="#472323" transform="translate(38,70)"/>
<path d="M0 0 C2.475 0.495 2.475 0.495 5 1 C5 1.66 5 2.32 5 3 C7.64 3.99 10.28 4.98 13 6 C13 6.99 13 7.98 13 9 C11.125 9.625 11.125 9.625 9 10 C8.34 9.34 7.68 8.68 7 8 C7 7.34 7 6.68 7 6 C5.35 5.67 3.7 5.34 2 5 C2 4.34 2 3.68 2 3 C1.34 2.67 0.68 2.34 0 2 C0 1.34 0 0.68 0 0 Z " fill="#D5A77D" transform="translate(400,26)"/>
<path d="M0 0 C1.60332791 -0.08121924 3.20784026 -0.13929134 4.8125 -0.1875 C6.15248047 -0.23970703 6.15248047 -0.23970703 7.51953125 -0.29296875 C10 0 10 0 11.82421875 1.38671875 C13 3 13 3 13 5 C13.804375 5.268125 14.60875 5.53625 15.4375 5.8125 C16.283125 6.204375 17.12875 6.59625 18 7 C18.33 7.99 18.66 8.98 19 10 C17.68 9.67 16.36 9.34 15 9 C15 8.34 15 7.68 15 7 C14.401875 6.896875 13.80375 6.79375 13.1875 6.6875 C11 6 11 6 9.75 4.5625 C6.92953427 2.04422702 3.6600948 1.7800202 0 1 C0 0.67 0 0.34 0 0 Z " fill="#8C543F" transform="translate(400,19)"/>
<path d="M0 0 C0.33 0 0.66 0 1 0 C1.19286332 5.49660457 0.90303246 9.81952275 -1 15 C-3.95664519 16.4783226 -6.74229737 16.06032783 -10 16 C-8.6100869 13.22017379 -6.81341647 13.12536659 -4 12 C-3.67 11.34 -3.34 10.68 -3 10 C-2.34 10 -1.68 10 -1 10 C-0.67 6.7 -0.34 3.4 0 0 Z " fill="#74B5CD" transform="translate(578,34)"/>
<path d="M0 0 C0.33 0.66 0.66 1.32 1 2 C-0.98 4.97 -0.98 4.97 -3 8 C-5.3431213 7.74438677 -7.67843403 7.40729228 -10 7 C-10.33 6.34 -10.66 5.68 -11 5 C-9.93458984 4.58427734 -9.93458984 4.58427734 -8.84765625 4.16015625 C-7.46900391 3.61681641 -7.46900391 3.61681641 -6.0625 3.0625 C-5.14597656 2.70285156 -4.22945312 2.34320313 -3.28515625 1.97265625 C-1.07581467 1.2003782 -1.07581467 1.2003782 0 0 Z " fill="#B37440" transform="translate(188,46)"/>
<path d="M0 0 C5.28 0 10.56 0 16 0 C16.33 0.99 16.66 1.98 17 3 C10.90218999 3.22084624 5.78357065 3.01167675 0 1 C0 0.67 0 0.34 0 0 Z " fill="#CE8349" transform="translate(386,48)"/>
<path d="M0 0 C0.33 0.66 0.66 1.32 1 2 C-2.23275701 2.95530645 -5.19675639 3.16460378 -8.5625 3.1875 C-9.51253906 3.20167969 -10.46257812 3.21585938 -11.44140625 3.23046875 C-14 3 -14 3 -17 1 C-15.95199219 0.90912109 -15.95199219 0.90912109 -14.8828125 0.81640625 C-13.97273438 0.73261719 -13.06265625 0.64882813 -12.125 0.5625 C-11.22007812 0.48128906 -10.31515625 0.40007813 -9.3828125 0.31640625 C-2.24065255 -0.63197892 -2.24065255 -0.63197892 0 0 Z " fill="#E9BE8B" transform="translate(403,42)"/>
<path d="M0 0 C1.32 0 2.64 0 4 0 C7.25601751 7.87746171 7.25601751 7.87746171 6.1875 12.5625 C5.795625 13.366875 5.40375 14.17125 5 15 C3.68 14.67 2.36 14.34 1 14 C1.33 13.01 1.66 12.02 2 11 C2.66 10.67 3.32 10.34 4 10 C4.41780879 7.62694422 4.41780879 7.62694422 4 5 C1.59141286 3.1375562 1.59141286 3.1375562 -1 2 C-0.67 1.34 -0.34 0.68 0 0 Z " fill="#3D7BDF" transform="translate(639,30)"/>
<path d="M0 0 C7.23404255 -0.36170213 7.23404255 -0.36170213 10.25 1.0625 C12.88547698 3.98034952 12.39114399 6.34132619 12.25 10.1875 C12.21390625 11.45980469 12.1778125 12.73210938 12.140625 14.04296875 C12.07101562 15.50669922 12.07101562 15.50669922 12 17 C11.67 17 11.34 17 11 17 C10.67 14.69 10.34 12.38 10 10 C9.67 10 9.34 10 9 10 C8.34 7.03 7.68 4.06 7 1 C4.69 1 2.38 1 0 1 C0 0.67 0 0.34 0 0 Z " fill="#2B5AB7" transform="translate(636,29)"/>
<path d="M0 0 C0.33 2.31 0.66 4.62 1 7 C-0.98 7 -2.96 7 -5 7 C-5.6875 5.1875 -5.6875 5.1875 -6 3 C-4.04862098 0.26806937 -3.44686768 0 0 0 Z " fill="#130E2C" transform="translate(477,46)"/>
<path d="M0 0 C3.37747554 2.90408274 3.64806338 5.13985641 4.015625 9.4375 C3.98931821 13.75181316 3.0527916 17.8323374 2 22 C0.68 22.33 -0.64 22.66 -2 23 C-1.7834375 22.45472656 -1.566875 21.90945312 -1.34375 21.34765625 C1.33105844 14.10338339 1.94667545 7.54336738 0 0 Z " fill="#D1711B" transform="translate(67,31)"/>
<path d="M0 0 C2.31 0 4.62 0 7 0 C7.33 0.66 7.66 1.32 8 2 C6.37660195 3.70884005 4.70680947 5.37446717 3 7 C2.34 7 1.68 7 1 7 C0.67 4.69 0.34 2.38 0 0 Z " fill="#0B0B28" transform="translate(513,33)"/>
<path d="M0 0 C2.475 0.99 2.475 0.99 5 2 C5 4.31 5 6.62 5 9 C3.68 9.33 2.36 9.66 1 10 C-0.60725635 6.78548731 -0.05748185 3.56387464 0 0 Z " fill="#FA9F1B" transform="translate(50,25)"/>
<path d="M0 0 C0 0.66 0 1.32 0 2 C-0.66 2 -1.32 2 -2 2 C-2.33 3.32 -2.66 4.64 -3 6 C-3 5.34 -3 4.68 -3 4 C-4.98 4.66 -6.96 5.32 -9 6 C-9 5.34 -9 4.68 -9 4 C-9.66 3.67 -10.32 3.34 -11 3 C-7.48550811 -0.37391222 -4.73940561 -0.27342725 0 0 Z " fill="#CF5648" transform="translate(332,30)"/>
<path d="M0 0 C2.475 0.99 2.475 0.99 5 2 C4.01 2.495 4.01 2.495 3 3 C3.66 4.65 4.32 6.3 5 8 C3.35 8 1.7 8 0 8 C0 7.01 0 6.02 0 5 C-1.32 5.33 -2.64 5.66 -4 6 C-2.84826645 3.53199953 -1.95216435 1.95216435 0 0 Z " fill="#FDB627" transform="translate(34,27)"/>
<path d="M0 0 C8.3224235 -0.90424722 8.3224235 -0.90424722 12.15234375 1.16015625 C15.57800319 3.99193815 17.83622465 6.60351535 19 11 C17 11 17 11 15.0625 9.1875 C14.381875 8.465625 13.70125 7.74375 13 7 C12.4225 6.46375 11.845 5.9275 11.25 5.375 C10 4 10 4 10 2 C6.7 1.67 3.4 1.34 0 1 C0 0.67 0 0.34 0 0 Z " fill="#653B36" transform="translate(402,18)"/>
<path d="M0 0 C0.33 0 0.66 0 1 0 C1.43214045 5.27211344 1.43214045 5.27211344 1 8 C-1.1875 9.875 -1.1875 9.875 -4 11 C-4.928125 11.391875 -5.85625 11.78375 -6.8125 12.1875 C-7.534375 12.455625 -8.25625 12.72375 -9 13 C-5.34276206 5.94675541 -5.34276206 5.94675541 -1 4 C-0.19471111 1.94999129 -0.19471111 1.94999129 0 0 Z " fill="#6E4B3E" transform="translate(476,38)"/>
<path d="M0 0 C1.67542976 0.28604898 3.34385343 0.61781233 5 1 C5 2.65 5 4.3 5 6 C2.69 6 0.38 6 -2 6 C-1.125 1.125 -1.125 1.125 0 0 Z " fill="#B19E9A" transform="translate(116,36)"/>
<path d="M0 0 C5.28 0 10.56 0 16 0 C15.01 1.485 15.01 1.485 14 3 C8.85378013 3.34889626 4.07318687 2.84553115 -1 2 C-0.67 1.34 -0.34 0.68 0 0 Z " fill="#B27E5D" transform="translate(391,53)"/>
<path d="M0 0 C2.375 0.3125 2.375 0.3125 5 1 C5.66 1.99 6.32 2.98 7 4 C3.34920174 5.61064629 -0.0507432 6.44894091 -4 7 C-3.67 6.01 -3.34 5.02 -3 4 C-2.34 3.67 -1.68 3.34 -1 3 C-0.67 2.01 -0.34 1.02 0 0 Z " fill="#F4BD6F" transform="translate(481,32)"/>
<path d="M0 0 C0.99 0.33 1.98 0.66 3 1 C1.75 3.5 1.75 3.5 -1 6 C-5.02994957 6.45551292 -8.96067147 6.28580155 -13 6 C-10.11371599 4.42445965 -7.46657616 3.53723627 -4.25 2.875 C-3.45078125 2.70742188 -2.6515625 2.53984375 -1.828125 2.3671875 C-1.22484375 2.24601562 -0.6215625 2.12484375 0 2 C0 1.34 0 0.68 0 0 Z " fill="#5D3731" transform="translate(409,57)"/>
<path d="M0 0 C-2.68899452 3.32169911 -6.05312508 4.56477275 -10 6 C-10.66 5.67 -11.32 5.34 -12 5 C-12 4.34 -12 3.68 -12 3 C-10.75823305 2.29773859 -9.50614401 1.61370891 -8.25 0.9375 C-7.20585937 0.36322266 -7.20585937 0.36322266 -6.140625 -0.22265625 C-3.63859372 -1.1312406 -2.4667645 -0.88336837 0 0 Z " fill="#885A42" transform="translate(518,42)"/>
<path d="M0 0 C2.01822917 0.06510417 4.03645833 0.13020833 6.0546875 0.1953125 C6.0546875 1.5153125 6.0546875 2.8353125 6.0546875 4.1953125 C2.7546875 4.1953125 -0.5453125 4.1953125 -3.9453125 4.1953125 C-3.9453125 1.28822619 -2.86537429 0.28768818 0 0 Z " fill="#75B2F8" transform="translate(631.9453125,35.8046875)"/>
<path d="M0 0 C5.57142857 5.14285714 5.57142857 5.14285714 6 9 C3.69 8.67 1.38 8.34 -1 8 C-1.125 2.25 -1.125 2.25 0 0 Z " fill="#243857" transform="translate(269,30)"/>
<path d="M0 0 C0.66 0.33 1.32 0.66 2 1 C1.34 1.66 0.68 2.32 0 3 C0.33 3.66 0.66 4.32 1 5 C-2.01868434 6.50934217 -4.67297229 6.17510672 -8 6 C-8.99 5.34 -9.98 4.68 -11 4 C-10.28972656 3.79503906 -9.57945312 3.59007812 -8.84765625 3.37890625 C-7.92855469 3.10949219 -7.00945312 2.84007812 -6.0625 2.5625 C-4.68771484 2.16224609 -4.68771484 2.16224609 -3.28515625 1.75390625 C-1.0597507 1.20973949 -1.0597507 1.20973949 0 0 Z " fill="#7B513D" transform="translate(500,57)"/>
<path d="M0 0 C0.66 0.33 1.32 0.66 2 1 C1.01 2.485 1.01 2.485 0 4 C0.061875 4.99 0.12375 5.98 0.1875 7 C0.125625 7.99 0.06375 8.98 0 10 C-2.6522856 12.27338765 -4.32901036 12.95526736 -7.8125 13.1875 C-8.8953125 13.0946875 -8.8953125 13.0946875 -10 13 C-9.4225 12.7525 -8.845 12.505 -8.25 12.25 C-5.6997003 10.83316683 -3.98214299 9.12372463 -2 7 C-2.66 6.67 -3.32 6.34 -4 6 C-2.68 4.02 -1.36 2.04 0 0 Z " fill="#B1724C" transform="translate(416,35)"/>
<path d="M0 0 C0.33 0.66 0.66 1.32 1 2 C3.31 2 5.62 2 8 2 C8 2.66 8 3.32 8 4 C6.20909747 4.19466332 4.41723495 4.38051213 2.625 4.5625 C1.12839844 4.71912109 1.12839844 4.71912109 -0.3984375 4.87890625 C-3 5 -3 5 -5 4 C-5 3.01 -5 2.02 -5 1 C-2 0 -2 0 0 0 Z " fill="#5E4038" transform="translate(471,50)"/>
<path d="M0 0 C0.66 0 1.32 0 2 0 C1.67 1.32 1.34 2.64 1 4 C-0.32 4 -1.64 4 -3 4 C-3 4.66 -3 5.32 -3 6 C-1.68 6.33 -0.36 6.66 1 7 C0.01 7.66 -0.98 8.32 -2 9 C-3.65 8.01 -5.3 7.02 -7 6 C-6.67 5.01 -6.34 4.02 -6 3 C-5.195625 2.87625 -4.39125 2.7525 -3.5625 2.625 C-2.716875 2.41875 -1.87125 2.2125 -1 2 C-0.67 1.34 -0.34 0.68 0 0 Z " fill="#5E9BB2" transform="translate(257,34)"/>
<path d="M0 0 C-3.86968719 3.86968719 -8.90224016 4.47193857 -14.109375 5.4375 C-15.04523437 5.7159375 -15.04523437 5.7159375 -16 6 C-16.33 6.66 -16.66 7.32 -17 8 C-17.99 7.67 -18.98 7.34 -20 7 C-17.46635087 3.95088432 -14.85029365 3.02484619 -11.125 1.8125 C-10.09632812 1.46832031 -9.06765625 1.12414062 -8.0078125 0.76953125 C-5.18414215 0.04711169 -2.89527739 -0.15491337 0 0 Z " fill="#AA5720" transform="translate(49,16)"/>
<path d="M0 0 C1.485 0.99 1.485 0.99 3 2 C3 2.66 3 3.32 3 4 C4.32 4.33 5.64 4.66 7 5 C7.33 6.65 7.66 8.3 8 10 C8.99 10.33 9.98 10.66 11 11 C10.01 11.495 10.01 11.495 9 12 C7.62437146 10.71034824 6.29233607 9.37310707 5 8 C5 7.34 5 6.68 5 6 C3.35 5.67 1.7 5.34 0 5 C0 3.35 0 1.7 0 0 Z " fill="#4B2621" transform="translate(20,55)"/>
<path d="M0 0 C0.33 0.66 0.66 1.32 1 2 C3.52733235 2.65555119 3.52733235 2.65555119 6 3 C6 4.32 6 5.64 6 7 C7.2065625 7.185625 7.2065625 7.185625 8.4375 7.375 C9.7059375 7.684375 9.7059375 7.684375 11 8 C11.33 8.66 11.66 9.32 12 10 C7.31266455 9.71591906 4.79071085 7.48550729 1.35546875 4.5703125 C0 3 0 3 0 0 Z " fill="#7D3E1F" transform="translate(24,55)"/>
<path d="M0 0 C0.3125 2.8125 0.3125 2.8125 0 6 C-2.375 7.9375 -2.375 7.9375 -5 9 C-5.66 8.67 -6.32 8.34 -7 8 C-6.34 7.34 -5.68 6.68 -5 6 C-4.83312552 3.41645782 -4.83312552 3.41645782 -5 1 C-3 0 -3 0 0 0 Z " fill="#976141" transform="translate(504,50)"/>
<path d="M0 0 C1.98 0 3.96 0 6 0 C5.649375 0.78375 5.29875 1.5675 4.9375 2.375 C4.628125 3.24125 4.31875 4.1075 4 5 C4.33 5.66 4.66 6.32 5 7 C3.35 7 1.7 7 0 7 C0 4.69 0 2.38 0 0 Z " fill="#C67A48" transform="translate(409,36)"/>
<path d="M0 0 C0.66 0 1.32 0 2 0 C2.93065133 2.60582371 3.14917407 3.64198224 2.0625 6.25 C1.5365625 7.11625 1.5365625 7.11625 1 8 C-0.65 7.67 -2.3 7.34 -4 7 C-3.34 5.35 -2.68 3.7 -2 2 C-1.34 2 -0.68 2 0 2 C0 1.34 0 0.68 0 0 Z " fill="#DC8E50" transform="translate(407,35)"/>
<path d="M0 0 C0.99 0.33 1.98 0.66 3 1 C2.67 1.66 2.34 2.32 2 3 C1.34 3 0.68 3 0 3 C0 3.66 0 4.32 0 5 C-2.64 5 -5.28 5 -8 5 C-8.66 3.68 -9.32 2.36 -10 1 C-8.88625 1.495 -8.88625 1.495 -7.75 2 C-4.86116688 3.22782871 -4.86116688 3.22782871 -1 3 C-0.67 2.01 -0.34 1.02 0 0 Z " fill="#346FD4" transform="translate(638,46)"/>
<path d="M0 0 C0.99 0.33 1.98 0.66 3 1 C3.08097324 3.27024968 3.13917704 5.54132075 3.1875 7.8125 C3.22230469 9.07707031 3.25710938 10.34164062 3.29296875 11.64453125 C3 15 3 15 1.48828125 16.94921875 C0.99714844 17.29597656 0.50601563 17.64273438 0 18 C0.08378906 17.11957031 0.16757812 16.23914063 0.25390625 15.33203125 C0.35574219 14.17058594 0.45757813 13.00914063 0.5625 11.8125 C0.66691406 10.66394531 0.77132812 9.51539063 0.87890625 8.33203125 C0.98859985 5.31368801 0.74002389 2.91076064 0 0 Z " fill="#4E8AAA" transform="translate(579,30)"/>
<path d="M0 0 C2.31 0 4.62 0 7 0 C7 1.32 7 2.64 7 4 C4.36 4 1.72 4 -1 4 C-0.67 2.68 -0.34 1.36 0 0 Z " fill="#40293A" transform="translate(425,43)"/>
<path d="M0 0 C0.66 0 1.32 0 2 0 C1.38461538 6.52307692 1.38461538 6.52307692 -0.5625 8.9375 C-1.036875 9.288125 -1.51125 9.63875 -2 10 C-2.6875 8.375 -2.6875 8.375 -3 6 C-1.5625 2.75 -1.5625 2.75 0 0 Z " fill="#6F402E" transform="translate(195,40)"/>
<path d="M0 0 C2.375 -0.1875 2.375 -0.1875 5 0 C7.46324069 3.69486103 7.38991688 5.63293092 7 10 C5.5 11.9375 5.5 11.9375 4 13 C3.375 11.25 3.375 11.25 3 9 C4 7 4 7 5 5 C4.70194993 2.80252869 4.70194993 2.80252869 4 1 C2.68 0.67 1.36 0.34 0 0 Z " fill="#D79855" transform="translate(183,29)"/>
<path d="M0 0 C0.33 1.32 0.66 2.64 1 4 C-0.65 4.33 -2.3 4.66 -4 5 C-4 5.66 -4 6.32 -4 7 C-5.65 7.33 -7.3 7.66 -9 8 C-9 8.66 -9 9.32 -9 10 C-10.32 9.34 -11.64 8.68 -13 8 C-9.6973838 5.79825587 -6.74126111 4.94938624 -2.9609375 3.87890625 C-2.31382812 3.58886719 -1.66671875 3.29882812 -1 3 C-0.67 2.01 -0.34 1.02 0 0 Z " fill="#B0433B" transform="translate(332,40)"/>
<path d="M0 0 C0.33 0.66 0.66 1.32 1 2 C-0.40424009 4.80848017 -2.10864198 4.92414585 -5 6 C-6.34050052 6.65213539 -7.67661368 7.31379969 -9 8 C-9.66 7.01 -10.32 6.02 -11 5 C-9.68 5 -8.36 5 -7 5 C-7 4.34 -7 3.68 -7 3 C-4.69 2.01 -2.38 1.02 0 0 Z " fill="#E4A052" transform="translate(186,43)"/>
<path d="M0 0 C1.67542976 0.28604898 3.34385343 0.61781233 5 1 C5 1.99 5 2.98 5 4 C3.35 4.66 1.7 5.32 0 6 C-0.38218767 4.34385343 -0.71395102 2.67542976 -1 1 C-0.67 0.67 -0.34 0.34 0 0 Z " fill="#A8B14A" transform="translate(256,42)"/>
<path d="M0 0 C2.09749995 2.35968744 2.96905704 3.54616994 3.1875 6.75 C3.125625 7.4925 3.06375 8.235 3 9 C2.01 9 1.02 9 0 9 C-0.33 10.32 -0.66 11.64 -1 13 C-1.07654536 8.48382401 -1.10228696 4.40914783 0 0 Z " fill="#CC894D" transform="translate(386,33)"/>
<path d="M0 0 C6.6 0.66 13.2 1.32 20 2 C20 2.33 20 2.66 20 3 C17.22858283 3.08089542 14.45952181 3.14044062 11.6875 3.1875 C10.90181641 3.21263672 10.11613281 3.23777344 9.30664062 3.26367188 C8.54931641 3.27333984 7.79199219 3.28300781 7.01171875 3.29296875 C6.31522217 3.3086792 5.61872559 3.32438965 4.90112305 3.34057617 C3 3 3 3 0 0 Z " fill="#7B3C1F" transform="translate(36,65)"/>
<path d="M0 0 C1.6266848 0.28211877 3.25132896 0.57602375 4.875 0.875 C5.77992188 1.03742187 6.68484375 1.19984375 7.6171875 1.3671875 C10 2 10 2 12 4 C8.37 4 4.74 4 1 4 C0.67 2.68 0.34 1.36 0 0 Z " fill="#B36A3B" transform="translate(386,49)"/>
<path d="M0 0 C0.99 0.33 1.98 0.66 3 1 C2.34 3.31 1.68 5.62 1 8 C-0.32 8 -1.64 8 -3 8 C-2.45276317 4.62537285 -1.9451 2.91765 0 0 Z " fill="#945237" transform="translate(418,35)"/>
<path d="M0 0 C1.32 0.66 2.64 1.32 4 2 C1.12835434 4.70272533 -0.30991841 5.94791837 -4.3125 6.25 C-5.199375 6.1675 -6.08625 6.085 -7 6 C-7.33 5.34 -7.66 4.68 -8 4 C-5.36 3.67 -2.72 3.34 0 3 C0 2.01 0 1.02 0 0 Z " fill="#853033" transform="translate(329,46)"/>
<path d="M0 0 C-0.66 1.98 -1.32 3.96 -2 6 C-3.32 6 -4.64 6 -6 6 C-6 4.68 -6 3.36 -6 2 C-2.25 0 -2.25 0 0 0 Z " fill="#52322D" transform="translate(513,46)"/>
<path d="M0 0 C0.99 0 1.98 0 3 0 C2.9129995 1.62600941 2.8048219 3.25089678 2.6875 4.875 C2.62949219 5.77992187 2.57148437 6.68484375 2.51171875 7.6171875 C2 10 2 10 -1 12 C-0.67 8.04 -0.34 4.08 0 0 Z " fill="#793920" transform="translate(72,43)"/>
<path d="M0 0 C2.97 0 5.94 0 9 0 C8.67 0.99 8.34 1.98 8 3 C5.36 3 2.72 3 0 3 C0 2.01 0 1.02 0 0 Z " fill="#5393EE" transform="translate(628,44)"/>
<path d="M0 0 C1.32 0 2.64 0 4 0 C3.125 5.75 3.125 5.75 2 8 C1.34 8 0.68 8 0 8 C0 5.36 0 2.72 0 0 Z " fill="#23374B" transform="translate(271,43)"/>
<path d="M0 0 C2.31 0 4.62 0 7 0 C7.66 1.98 8.32 3.96 9 6 C8.01 6.66 7.02 7.32 6 8 C6 7.01 6 6.02 6 5 C4.17739702 2.83023454 2.39188999 1.59459332 0 0 Z " fill="#E7AB63" transform="translate(180,30)"/>
<path d="M0 0 C1.65 0.33 3.3 0.66 5 1 C4.01 2.485 4.01 2.485 3 4 C4.32 4.66 5.64 5.32 7 6 C4.36 6 1.72 6 -1 6 C-0.67 4.02 -0.34 2.04 0 0 Z " fill="#DEB88D" transform="translate(388,29)"/>
<path d="M0 0 C1.258125 0.226875 2.51625 0.45375 3.8125 0.6875 C3.8125 1.6775 3.8125 2.6675 3.8125 3.6875 C3.296875 3.5225 2.78125 3.3575 2.25 3.1875 C-0.92113876 2.53701 -3.95968334 2.6254266 -7.1875 2.6875 C-5.15110924 -0.49436057 -3.4972064 -0.45804119 0 0 Z " fill="#D6A26C" transform="translate(490.1875,26.3125)"/>
<path d="M0 0 C0.99 0.33 1.98 0.66 3 1 C2.75 3.375 2.75 3.375 2 6 C-0.0625 7.3125 -0.0625 7.3125 -2 8 C-2.33 7.01 -2.66 6.02 -3 5 C-1.5625 2.3125 -1.5625 2.3125 0 0 Z " fill="#4B99BE" transform="translate(247,32)"/>
<path d="M0 0 C1.99954746 -0.04254356 4.00041636 -0.04080783 6 0 C7 1 7 1 7.0625 4.5625 C7.041875 5.696875 7.02125 6.83125 7 8 C6.01 8.495 6.01 8.495 5 9 C5 7.68 5 6.36 5 5 C4.34 5 3.68 5 3 5 C3 4.34 3 3.68 3 3 C3.66 3 4.32 3 5 3 C5 2.34 5 1.68 5 1 C3.35 1 1.7 1 0 1 C0 0.67 0 0.34 0 0 Z " fill="#A43B3A" transform="translate(327,29)"/>
<path d="M0 0 C0 0.99 0 1.98 0 3 C-3.3 3.66 -6.6 4.32 -10 5 C-10 4.01 -10 3.02 -10 2 C-6.7 1.34 -3.4 0.68 0 0 Z " fill="#B17A4E" transform="translate(490,51)"/>
<path d="M0 0 C0.33 0.99 0.66 1.98 1 3 C0.360625 3.268125 -0.27875 3.53625 -0.9375 3.8125 C-3.33131686 4.88667752 -3.33131686 4.88667752 -4 8 C-5.65 8.33 -7.3 8.66 -9 9 C-6.56427537 5.69437371 -4.74111712 3.6770525 -1 2 C-0.67 1.34 -0.34 0.68 0 0 Z " fill="#A06140" transform="translate(416,43)"/>
<path d="M0 0 C1.17571451 3.67410785 1.07366746 7.16929183 1 11 C0.34 11 -0.32 11 -1 11 C-1.33 11.66 -1.66 12.32 -2 13 C-1.85966889 11.02043559 -1.7125877 9.04134859 -1.5625 7.0625 C-1.48128906 5.96035156 -1.40007813 4.85820313 -1.31640625 3.72265625 C-1 1 -1 1 0 0 Z " fill="#B5601C" transform="translate(25,30)"/>
<path d="M0 0 C2.10827055 3.16240582 2.33817465 4.50657469 2.625 8.1875 C2.69976562 9.08855469 2.77453125 9.98960938 2.8515625 10.91796875 C2.90054688 11.60503906 2.94953125 12.29210938 3 13 C2.34 13 1.68 13 1 13 C0.1276588 10.00519083 -0.10829766 7.36424089 -0.0625 4.25 C-0.05347656 3.45078125 -0.04445313 2.6515625 -0.03515625 1.828125 C-0.02355469 1.22484375 -0.01195313 0.6215625 0 0 Z " fill="#432124" transform="translate(76,28)"/>
<path d="M0 0 C0 0.66 0 1.32 0 2 C-2.31 2.33 -4.62 2.66 -7 3 C-7.66 1.68 -8.32 0.36 -9 -1 C-5.20731707 -2.26422764 -3.70731707 -1.23577236 0 0 Z " fill="#39262F" transform="translate(519,31)"/>
<path d="M0 0 C1.4540625 0.0309375 1.4540625 0.0309375 2.9375 0.0625 C2.9375 1.0525 2.9375 2.0425 2.9375 3.0625 C1.2875 3.3925 -0.3625 3.7225 -2.0625 4.0625 C-2.7225 3.0725 -3.3825 2.0825 -4.0625 1.0625 C-3.0625 0.0625 -3.0625 0.0625 0 0 Z " fill="#D49B5F" transform="translate(487.0625,55.9375)"/>
<path d="M0 0 C2.64 0 5.28 0 8 0 C8 0.99 8 1.98 8 3 C5.36 3 2.72 3 0 3 C0 2.01 0 1.02 0 0 Z " fill="#F9CA83" transform="translate(477,45)"/>
<path d="M0 0 C1.32 0 2.64 0 4 0 C6.15305957 3.85756507 7.39253254 6.55129785 7 11 C4.2027092 8.93243723 3.97307727 7.85559629 3.3125 4.3125 C3.209375 3.219375 3.10625 2.12625 3 1 C2.01 0.67 1.02 0.34 0 0 Z " fill="#AA571E" transform="translate(63,23)"/>
<path d="M0 0 C0.66 0 1.32 0 2 0 C1.71890887 1.64767247 1.42481474 3.29313145 1.125 4.9375 C0.96257812 5.85402344 0.80015625 6.77054688 0.6328125 7.71484375 C0.42398438 8.46894531 0.21515625 9.22304688 0 10 C-0.99 10.495 -0.99 10.495 -2 11 C-2.28571429 3.57142857 -2.28571429 3.57142857 0 0 Z " fill="#4A2322" transform="translate(77,43)"/>
<path d="M0 0 C2.6875 -0.375 2.6875 -0.375 6 0 C8.06398076 1.823983 9.39041053 3.72763839 11 6 C7.2089881 4.55049545 3.6125362 2.84827434 0 1 C0 0.67 0 0.34 0 0 Z " fill="#592B23" transform="translate(58,15)"/>
<path d="M0 0 C1.32 0 2.64 0 4 0 C3.67 1.32 3.34 2.64 3 4 C-0.375 4.625 -0.375 4.625 -4 5 C-4.66 4.34 -5.32 3.68 -6 3 C-4.02 2.67 -2.04 2.34 0 2 C0 1.34 0 0.68 0 0 Z " fill="#C17440" transform="translate(402,48)"/>
<path d="M0 0 C2.35448165 2.55068845 2.98327924 3.71017358 3.1875 7.25 C3.125625 8.1575 3.06375 9.065 3 10 C2.01 9.67 1.02 9.34 0 9 C-1.125 2.25 -1.125 2.25 0 0 Z " fill="#132D75" transform="translate(650,35)"/>
<path d="M0 0 C0.99 0 1.98 0 3 0 C3.33 2.31 3.66 4.62 4 7 C3.01 6.67 2.02 6.34 1 6 C0.67 4.02 0.34 2.04 0 0 Z " fill="#734D48" transform="translate(419,29)"/>
<path d="M0 0 C1.32 0 2.64 0 4 0 C4.33 1.98 4.66 3.96 5 6 C3.68 5.67 2.36 5.34 1 5 C0.67 3.35 0.34 1.7 0 0 Z " fill="#9A6E5A" transform="translate(415,29)"/>
<path d="M0 0 C2.625 0.1875 2.625 0.1875 5 1 C5.33 1.66 5.66 2.32 6 3 C3.03 3 0.06 3 -3 3 C-2.01 2.01 -1.02 1.02 0 0 Z " fill="#EFC593" transform="translate(398,41)"/>
<path d="M0 0 C0.99 0.33 1.98 0.66 3 1 C2.67 2.98 2.34 4.96 2 7 C1.01 7 0.02 7 -1 7 C-0.67 4.69 -0.34 2.38 0 0 Z " fill="#6F392D" transform="translate(420,36)"/>
<path d="M0 0 C1.125 1.625 1.125 1.625 2 4 C1.125 7.25 1.125 7.25 0 10 C-0.33 10 -0.66 10 -1 10 C-1.02689216 8.52093108 -1.04634621 7.04172517 -1.0625 5.5625 C-1.07410156 4.73878906 -1.08570313 3.91507813 -1.09765625 3.06640625 C-1 1 -1 1 0 0 Z " fill="#2E5D84" transform="translate(585,35)"/>
<path d="M0 0 C1.65 0 3.3 0 5 0 C5 0.66 5 1.32 5 2 C5.66 2 6.32 2 7 2 C7.33 2.99 7.66 3.98 8 5 C6.35 5.33 4.7 5.66 3 6 C3.33 5.01 3.66 4.02 4 3 C2.68 2.01 1.36 1.02 0 0 Z " fill="#BA8F71" transform="translate(409,30)"/>
<path d="M0 0 C1 3 1 3 0 6 C-2.31 6 -4.62 6 -7 6 C-5.6100869 3.22017379 -3.81341647 3.12536659 -1 2 C-0.67 1.34 -0.34 0.68 0 0 Z " fill="#7DBED3" transform="translate(575,44)"/>
<path d="M0 0 C0.99 0.66 1.98 1.32 3 2 C0.69 4.31 -1.62 6.62 -4 9 C-4 5.00095031 -2.27413033 3.19799578 0 0 Z " fill="#1A3E6B" transform="translate(264,45)"/>
<path d="M0 0 C-4.10457614 2.98514628 -6.97745369 3.2954439 -12 3 C-12 2.67 -12 2.34 -12 2 C-10.37787941 1.47026689 -8.75218416 0.95146893 -7.125 0.4375 C-6.22007812 0.14746094 -5.31515625 -0.14257812 -4.3828125 -0.44140625 C-2 -1 -2 -1 0 0 Z " fill="#A87248" transform="translate(498,58)"/>
<path d="M0 0 C0 1.65 0 3.3 0 5 C-2.64 4.67 -5.28 4.34 -8 4 C-5.87162321 1.87162321 -3.16570896 0 0 0 Z " fill="#295D97" transform="translate(258,49)"/>
<path d="M0 0 C2.31 0.33 4.62 0.66 7 1 C7 1.66 7 2.32 7 3 C4.03 3 1.06 3 -2 3 C-1.34 2.01 -0.68 1.02 0 0 Z " fill="#151534" transform="translate(523,40)"/>
<path d="M0 0 C0.33 1.32 0.66 2.64 1 4 C1.66 4 2.32 4 3 4 C2.814375 4.61875 2.62875 5.2375 2.4375 5.875 C1.76313824 8.04160178 1.76313824 8.04160178 3 10 C2.01 10 1.02 10 0 10 C0 6.7 0 3.4 0 0 Z " fill="#FDB023" transform="translate(29,33)"/>
<path d="M0 0 C0.66 0.33 1.32 0.66 2 1 C1.01 3.97 0.02 6.94 -1 10 C-1.33 10 -1.66 10 -2 10 C-2.6875 6.6875 -2.6875 6.6875 -3 3 C-1.5625 1.0625 -1.5625 1.0625 0 0 Z " fill="#D57D22" transform="translate(28,29)"/>
<path d="M0 0 C0.66 1.32 1.32 2.64 2 4 C-0.375 4.625 -0.375 4.625 -3 5 C-3.66 4.34 -4.32 3.68 -5 3 C-2.25 0 -2.25 0 0 0 Z " fill="#D6D371" transform="translate(253,28)"/>
<path d="M0 0 C0.33 0.66 0.66 1.32 1 2 C-1 5 -1 5 -4.125 5.6875 C-5.07375 5.790625 -6.0225 5.89375 -7 6 C-2.25 1.125 -2.25 1.125 0 0 Z " fill="#B97A4B" transform="translate(398,20)"/>
<path d="M0 0 C0.66 0 1.32 0 2 0 C1.67 1.65 1.34 3.3 1 5 C-0.65 5.33 -2.3 5.66 -4 6 C-2.7260411 3.96166576 -1.38938077 1.96147874 0 0 Z " fill="#75483D" transform="translate(413,51)"/>
<path d="M0 0 C1.98 0 3.96 0 6 0 C6.33 0.66 6.66 1.32 7 2 C5.35 2.66 3.7 3.32 2 4 C2 3.34 2 2.68 2 2 C1.34 2 0.68 2 0 2 C0 1.34 0 0.68 0 0 Z " fill="#1C1636" transform="translate(468,41)"/>
<path d="M0 0 C2.475 0.495 2.475 0.495 5 1 C4.01 2.485 4.01 2.485 3 4 C2.01 3.67 1.02 3.34 0 3 C0 2.01 0 1.02 0 0 Z " fill="#BC5048" transform="translate(323,37)"/>
<path d="M0 0 C0.33 0.66 0.66 1.32 1 2 C1.99 2 2.98 2 4 2 C2.84826645 4.46800047 1.95216435 6.04783565 0 8 C0 5.36 0 2.72 0 0 Z " fill="#D25845" transform="translate(319,36)"/>
<path d="M0 0 C2 1.375 2 1.375 4 3 C4 3.66 4 4.32 4 5 C2.35 5 0.7 5 -1 5 C-0.67 3.35 -0.34 1.7 0 0 Z " fill="#334647" transform="translate(269,30)"/>
<path d="M0 0 C1.98 0 3.96 0 6 0 C5.01 0.66 4.02 1.32 3 2 C2.319375 2.53625 1.63875 3.0725 0.9375 3.625 C-1 5 -1 5 -3 5 C-2.67 4.01 -2.34 3.02 -2 2 C-1.34 2 -0.68 2 0 2 C0 1.34 0 0.68 0 0 Z " fill="#D1771F" transform="translate(36,20)"/>
</svg>
